<?xml version='1.0' encoding='UTF-8' standalone='no'?>
<svg width="358pt" xmlns:xlink="http://www.w3.org/1999/xlink" height="267pt" xmlns="http://www.w3.org/2000/svg" viewBox="0 0 358 267">
 <title>gl2ps_renderer figure</title>
 <desc>
Creator: GL2PS 1.4.2, (C) 1999-2020 C. Geuzaine
For: Octave
CreationDate: Sun Jun 27 12:11:36 2021
</desc>
 <defs/>
 <polygon points="0,0 358,0 358,267 0,267" fill="#ffffff"/>
 <g>
  <polygon points="0,267 358,267 358,0 0,0" fill="#ffffff" shape-rendering="crispEdges"/>
  <clipPath id="cp00358267">
   <polygon points="0,267 358,267 358,0 0,0"/>
  </clipPath>
  <g clip-path="url(#cp00358267)">
   <polygon points="47.9947,238.046 324.288,238.046 324.288,20.06 47.9947,20.06" fill="#ffffff" shape-rendering="crispEdges"/>
   <polyline points="47.9947,238.046 47.9947,235.283" stroke-linecap="butt" stroke-linejoin="miter" fill="none" stroke="#262626" stroke-width="0.5"/>
   <polyline points="47.9947,20.06 47.9947,22.8227" stroke-linecap="butt" stroke-linejoin="miter" fill="none" stroke="#262626" stroke-width="0.5"/>
   <polyline points="87.4652,238.046 87.4652,235.283" stroke-linecap="butt" stroke-linejoin="miter" fill="none" stroke="#262626" stroke-width="0.5"/>
   <polyline points="87.4652,20.06 87.4652,22.8227" stroke-linecap="butt" stroke-linejoin="miter" fill="none" stroke="#262626" stroke-width="0.5"/>
   <polyline points="126.936,238.046 126.936,235.283" stroke-linecap="butt" stroke-linejoin="miter" fill="none" stroke="#262626" stroke-width="0.5"/>
   <polyline points="126.936,20.06 126.936,22.8227" stroke-linecap="butt" stroke-linejoin="miter" fill="none" stroke="#262626" stroke-width="0.5"/>
   <polyline points="166.406,238.046 166.406,235.283" stroke-linecap="butt" stroke-linejoin="miter" fill="none" stroke="#262626" stroke-width="0.5"/>
   <polyline points="166.406,20.06 166.406,22.8227" stroke-linecap="butt" stroke-linejoin="miter" fill="none" stroke="#262626" stroke-width="0.5"/>
   <polyline points="205.877,238.046 205.877,235.283" stroke-linecap="butt" stroke-linejoin="miter" fill="none" stroke="#262626" stroke-width="0.5"/>
   <polyline points="205.877,20.06 205.877,22.8227" stroke-linecap="butt" stroke-linejoin="miter" fill="none" stroke="#262626" stroke-width="0.5"/>
   <polyline points="245.347,238.046 245.347,235.283" stroke-linecap="butt" stroke-linejoin="miter" fill="none" stroke="#262626" stroke-width="0.5"/>
   <polyline points="245.347,20.06 245.347,22.8227" stroke-linecap="butt" stroke-linejoin="miter" fill="none" stroke="#262626" stroke-width="0.5"/>
   <polyline points="284.817,238.046 284.817,235.283" stroke-linecap="butt" stroke-linejoin="miter" fill="none" stroke="#262626" stroke-width="0.5"/>
   <polyline points="284.817,20.06 284.817,22.8227" stroke-linecap="butt" stroke-linejoin="miter" fill="none" stroke="#262626" stroke-width="0.5"/>
   <polyline points="324.288,238.046 324.288,235.283" stroke-linecap="butt" stroke-linejoin="miter" fill="none" stroke="#262626" stroke-width="0.5"/>
   <polyline points="324.288,20.06 324.288,22.8227" stroke-linecap="butt" stroke-linejoin="miter" fill="none" stroke="#262626" stroke-width="0.5"/>
   <text font-weight="normal" font-size="10" transform="translate(44.9947,253.545) rotate(-0,3,-8)" xml:space="preserve" font-family="FreeSans" font-style="normal">
    <tspan y="-0" x="0 " fill="rgb(38,38,38)">0</tspan>
   </text>
   <text font-weight="normal" font-size="10" transform="translate(84.4652,253.545) rotate(-0,3,-8)" xml:space="preserve" font-family="FreeSans" font-style="normal">
    <tspan y="-0" x="0 " fill="rgb(38,38,38)">5</tspan>
   </text>
   <text font-weight="normal" font-size="10" transform="translate(120.936,253.545) rotate(-0,6,-8)" xml:space="preserve" font-family="FreeSans" font-style="normal">
    <tspan y="-0" x="0 6 " fill="rgb(38,38,38)">10</tspan>
   </text>
   <text font-weight="normal" font-size="10" transform="translate(160.406,253.545) rotate(-0,6,-8)" xml:space="preserve" font-family="FreeSans" font-style="normal">
    <tspan y="-0" x="0 6 " fill="rgb(38,38,38)">15</tspan>
   </text>
   <text font-weight="normal" font-size="10" transform="translate(199.877,253.545) rotate(-0,6,-8)" xml:space="preserve" font-family="FreeSans" font-style="normal">
    <tspan y="-0" x="0 6 " fill="rgb(38,38,38)">20</tspan>
   </text>
   <text font-weight="normal" font-size="10" transform="translate(239.347,253.545) rotate(-0,6,-8)" xml:space="preserve" font-family="FreeSans" font-style="normal">
    <tspan y="-0" x="0 6 " fill="rgb(38,38,38)">25</tspan>
   </text>
   <text font-weight="normal" font-size="10" transform="translate(278.817,253.545) rotate(-0,6,-8)" xml:space="preserve" font-family="FreeSans" font-style="normal">
    <tspan y="-0" x="0 6 " fill="rgb(38,38,38)">30</tspan>
   </text>
   <text font-weight="normal" font-size="10" transform="translate(318.288,253.545) rotate(-0,6,-8)" xml:space="preserve" font-family="FreeSans" font-style="normal">
    <tspan y="-0" x="0 6 " fill="rgb(38,38,38)">35</tspan>
   </text>
   <polyline points="47.9947,238.046 50.7606,238.046" stroke-linecap="butt" stroke-linejoin="miter" fill="none" stroke="#262626" stroke-width="0.5"/>
   <polyline points="324.288,238.046 321.522,238.046" stroke-linecap="butt" stroke-linejoin="miter" fill="none" stroke="#262626" stroke-width="0.5"/>
   <polyline points="47.9947,201.715 50.7606,201.715" stroke-linecap="butt" stroke-linejoin="miter" fill="none" stroke="#262626" stroke-width="0.5"/>
   <polyline points="324.288,201.715 321.522,201.715" stroke-linecap="butt" stroke-linejoin="miter" fill="none" stroke="#262626" stroke-width="0.5"/>
   <polyline points="47.9947,165.384 50.7606,165.384" stroke-linecap="butt" stroke-linejoin="miter" fill="none" stroke="#262626" stroke-width="0.5"/>
   <polyline points="324.288,165.384 321.522,165.384" stroke-linecap="butt" stroke-linejoin="miter" fill="none" stroke="#262626" stroke-width="0.5"/>
   <polyline points="47.9947,129.053 50.7606,129.053" stroke-linecap="butt" stroke-linejoin="miter" fill="none" stroke="#262626" stroke-width="0.5"/>
   <polyline points="324.288,129.053 321.522,129.053" stroke-linecap="butt" stroke-linejoin="miter" fill="none" stroke="#262626" stroke-width="0.5"/>
   <polyline points="47.9947,92.7219 50.7606,92.7219" stroke-linecap="butt" stroke-linejoin="miter" fill="none" stroke="#262626" stroke-width="0.5"/>
   <polyline points="324.288,92.7219 321.522,92.7219" stroke-linecap="butt" stroke-linejoin="miter" fill="none" stroke="#262626" stroke-width="0.5"/>
   <polyline points="47.9947,56.3909 50.7606,56.3909" stroke-linecap="butt" stroke-linejoin="miter" fill="none" stroke="#262626" stroke-width="0.5"/>
   <polyline points="324.288,56.3909 321.522,56.3909" stroke-linecap="butt" stroke-linejoin="miter" fill="none" stroke="#262626" stroke-width="0.5"/>
   <polyline points="47.9947,20.06 50.7606,20.06" stroke-linecap="butt" stroke-linejoin="miter" fill="none" stroke="#262626" stroke-width="0.5"/>
   <polyline points="324.288,20.06 321.522,20.06" stroke-linecap="butt" stroke-linejoin="miter" fill="none" stroke="#262626" stroke-width="0.5"/>
   <text font-weight="normal" font-size="10" transform="translate(4.98938,242.046) rotate(-0,38,-4)" xml:space="preserve" font-family="FreeSans" font-style="normal">
    <tspan y="-0" x="0 6 9 15 20 26 32 " fill="rgb(38,38,38)">1.4e+06</tspan>
   </text>
   <text font-weight="normal" font-size="10" transform="translate(4.98938,205.715) rotate(-0,38,-4)" xml:space="preserve" font-family="FreeSans" font-style="normal">
    <tspan y="-0" x="0 6 9 15 20 26 32 " fill="rgb(38,38,38)">1.5e+06</tspan>
   </text>
   <text font-weight="normal" font-size="10" transform="translate(4.98938,169.384) rotate(-0,38,-4)" xml:space="preserve" font-family="FreeSans" font-style="normal">
    <tspan y="-0" x="0 6 9 15 20 26 32 " fill="rgb(38,38,38)">1.6e+06</tspan>
   </text>
   <text font-weight="normal" font-size="10" transform="translate(4.98938,133.053) rotate(-0,38,-4)" xml:space="preserve" font-family="FreeSans" font-style="normal">
    <tspan y="-0" x="0 6 9 15 20 26 32 " fill="rgb(38,38,38)">1.7e+06</tspan>
   </text>
   <text font-weight="normal" font-size="10" transform="translate(4.98938,96.7219) rotate(-0,38,-4)" xml:space="preserve" font-family="FreeSans" font-style="normal">
    <tspan y="-0" x="0 6 9 15 20 26 32 " fill="rgb(38,38,38)">1.8e+06</tspan>
   </text>
   <text font-weight="normal" font-size="10" transform="translate(4.98938,60.391) rotate(-0,38,-4)" xml:space="preserve" font-family="FreeSans" font-style="normal">
    <tspan y="-0" x="0 6 9 15 20 26 32 " fill="rgb(38,38,38)">1.9e+06</tspan>
   </text>
   <text font-weight="normal" font-size="10" transform="translate(13.9894,24.06) rotate(-0,29,-4)" xml:space="preserve" font-family="FreeSans" font-style="normal">
    <tspan y="-0" x="0 6 11 17 23 " fill="rgb(38,38,38)">2e+06</tspan>
   </text>
   <polyline stroke-dasharray="16,0" points="47.9947,238.046 324.288,238.046" stroke-linecap="square" stroke-linejoin="miter" fill="none" stroke="#262626" stroke-width="0.5"/>
   <polyline stroke-dasharray="16,0" points="47.9947,20.06 324.288,20.06" stroke-linecap="square" stroke-linejoin="miter" fill="none" stroke="#262626" stroke-width="0.5"/>
   <polyline stroke-dasharray="16,0" points="47.9947,238.046 47.9947,20.06" stroke-linecap="square" stroke-linejoin="miter" fill="none" stroke="#262626" stroke-width="0.5"/>
   <polyline stroke-dasharray="16,0" points="324.288,238.046 324.288,20.06" stroke-linecap="square" stroke-linejoin="miter" fill="none" stroke="#262626" stroke-width="0.5"/>
   <polyline points="55.8888,22.3816 63.7829,53.0115 71.677,76.2106 79.5711,58.7165 87.4652,38.5522 95.3592,37.6407 103.253,42.3343 111.147,69.2959 119.042,50.1571 126.936,99.7155 134.83,94.8526 142.724,76.0083 150.618,76.6245 158.512,83.6936 166.406,136.461 174.3,130.193 182.194,133.941 190.088,128.527 197.982,122.215 205.877,125.881 213.771,153.197 221.665,117.736 229.559,148.57 237.453,157.15 245.347,162.238 253.241,176.819 261.135,194.328 269.029,186.447 276.923,195.926 284.817,198.571 292.712,215.303 300.606,202.512 308.5,187.669 316.394,200.748 324.288,213.054" stroke-linecap="butt" stroke-linejoin="round" fill="none" stroke="#0000ff" stroke-width="0.5"/>
   <polyline points="55.8888,22.3816 63.7829,53.0115 71.677,76.2106 79.5711,76.2106 87.4652,76.2106 95.3592,76.2106 103.253,76.2106 111.147,76.2106 119.042,76.2106 126.936,99.7155 134.83,99.7155 142.724,99.7155 150.618,99.7155 158.512,99.7155 166.406,136.461 174.3,136.461 182.194,136.461 190.088,136.461 197.982,136.461 205.877,136.461 213.771,153.197 221.665,153.197 229.559,153.197 237.453,157.15 245.347,162.238 253.241,176.819 261.135,194.328 269.029,194.328 276.923,195.926 284.817,198.571 292.712,215.303 300.606,215.303 308.5,215.303 316.394,215.303 324.288,215.303" stroke-linecap="butt" stroke-linejoin="round" fill="none" stroke="#ff0000" stroke-width="0.5"/>
  </g>
 </g>
</svg>
