<?xml version='1.0' encoding='UTF-8' standalone='no'?>
<svg viewBox="0 0 358 267" height="267pt" width="358pt" xmlns="http://www.w3.org/2000/svg" xmlns:xlink="http://www.w3.org/1999/xlink">
 <title>gl2ps_renderer figure</title>
 <desc>
Creator: GL2PS 1.4.2, (C) 1999-2020 C. Geuzaine
For: Octave
CreationDate: Sun Jun 27 12:18:31 2021
</desc>
 <defs/>
 <polygon fill="#ffffff" points="0,0 358,0 358,267 0,267"/>
 <g>
  <polygon fill="#ffffff" points="0,267 358,267 358,0 0,0" shape-rendering="crispEdges"/>
  <clipPath id="cp00358267">
   <polygon points="0,267 358,267 358,0 0,0"/>
  </clipPath>
  <g clip-path="url(#cp00358267)">
   <polygon fill="#ffffff" points="47.9947,238.046 324.288,238.046 324.288,20.06 47.9947,20.06" shape-rendering="crispEdges"/>
   <polyline fill="none" stroke-linejoin="miter" stroke-width="0.5" stroke="#262626" points="47.9947,238.046 47.9947,235.283" stroke-linecap="butt"/>
   <polyline fill="none" stroke-linejoin="miter" stroke-width="0.5" stroke="#262626" points="47.9947,20.06 47.9947,22.8227" stroke-linecap="butt"/>
   <polyline fill="none" stroke-linejoin="miter" stroke-width="0.5" stroke="#262626" points="117.068,238.046 117.068,235.283" stroke-linecap="butt"/>
   <polyline fill="none" stroke-linejoin="miter" stroke-width="0.5" stroke="#262626" points="117.068,20.06 117.068,22.8227" stroke-linecap="butt"/>
   <polyline fill="none" stroke-linejoin="miter" stroke-width="0.5" stroke="#262626" points="186.141,238.046 186.141,235.283" stroke-linecap="butt"/>
   <polyline fill="none" stroke-linejoin="miter" stroke-width="0.5" stroke="#262626" points="186.141,20.06 186.141,22.8227" stroke-linecap="butt"/>
   <polyline fill="none" stroke-linejoin="miter" stroke-width="0.5" stroke="#262626" points="255.215,238.046 255.215,235.283" stroke-linecap="butt"/>
   <polyline fill="none" stroke-linejoin="miter" stroke-width="0.5" stroke="#262626" points="255.215,20.06 255.215,22.8227" stroke-linecap="butt"/>
   <polyline fill="none" stroke-linejoin="miter" stroke-width="0.5" stroke="#262626" points="324.288,238.046 324.288,235.283" stroke-linecap="butt"/>
   <polyline fill="none" stroke-linejoin="miter" stroke-width="0.5" stroke="#262626" points="324.288,20.06 324.288,22.8227" stroke-linecap="butt"/>
   <text xml:space="preserve" transform="translate(44.9947,253.545) rotate(-0,3,-8)" font-style="normal" font-size="10" font-family="FreeSans" font-weight="normal">
    <tspan fill="rgb(38,38,38)" x="0 " y="-0">0</tspan>
   </text>
   <text xml:space="preserve" transform="translate(111.068,253.545) rotate(-0,6,-8)" font-style="normal" font-size="10" font-family="FreeSans" font-weight="normal">
    <tspan fill="rgb(38,38,38)" x="0 6 " y="-0">20</tspan>
   </text>
   <text xml:space="preserve" transform="translate(180.141,253.545) rotate(-0,6,-8)" font-style="normal" font-size="10" font-family="FreeSans" font-weight="normal">
    <tspan fill="rgb(38,38,38)" x="0 6 " y="-0">40</tspan>
   </text>
   <text xml:space="preserve" transform="translate(249.215,253.545) rotate(-0,6,-8)" font-style="normal" font-size="10" font-family="FreeSans" font-weight="normal">
    <tspan fill="rgb(38,38,38)" x="0 6 " y="-0">60</tspan>
   </text>
   <text xml:space="preserve" transform="translate(318.288,253.545) rotate(-0,6,-8)" font-style="normal" font-size="10" font-family="FreeSans" font-weight="normal">
    <tspan fill="rgb(38,38,38)" x="0 6 " y="-0">80</tspan>
   </text>
   <polyline fill="none" stroke-linejoin="miter" stroke-width="0.5" stroke="#262626" points="47.9947,238.046 50.7606,238.046" stroke-linecap="butt"/>
   <polyline fill="none" stroke-linejoin="miter" stroke-width="0.5" stroke="#262626" points="324.288,238.046 321.522,238.046" stroke-linecap="butt"/>
   <polyline fill="none" stroke-linejoin="miter" stroke-width="0.5" stroke="#262626" points="47.9947,201.715 50.7606,201.715" stroke-linecap="butt"/>
   <polyline fill="none" stroke-linejoin="miter" stroke-width="0.5" stroke="#262626" points="324.288,201.715 321.522,201.715" stroke-linecap="butt"/>
   <polyline fill="none" stroke-linejoin="miter" stroke-width="0.5" stroke="#262626" points="47.9947,165.384 50.7606,165.384" stroke-linecap="butt"/>
   <polyline fill="none" stroke-linejoin="miter" stroke-width="0.5" stroke="#262626" points="324.288,165.384 321.522,165.384" stroke-linecap="butt"/>
   <polyline fill="none" stroke-linejoin="miter" stroke-width="0.5" stroke="#262626" points="47.9947,129.053 50.7606,129.053" stroke-linecap="butt"/>
   <polyline fill="none" stroke-linejoin="miter" stroke-width="0.5" stroke="#262626" points="324.288,129.053 321.522,129.053" stroke-linecap="butt"/>
   <polyline fill="none" stroke-linejoin="miter" stroke-width="0.5" stroke="#262626" points="47.9947,92.7219 50.7606,92.7219" stroke-linecap="butt"/>
   <polyline fill="none" stroke-linejoin="miter" stroke-width="0.5" stroke="#262626" points="324.288,92.7219 321.522,92.7219" stroke-linecap="butt"/>
   <polyline fill="none" stroke-linejoin="miter" stroke-width="0.5" stroke="#262626" points="47.9947,56.3909 50.7606,56.3909" stroke-linecap="butt"/>
   <polyline fill="none" stroke-linejoin="miter" stroke-width="0.5" stroke="#262626" points="324.288,56.3909 321.522,56.3909" stroke-linecap="butt"/>
   <polyline fill="none" stroke-linejoin="miter" stroke-width="0.5" stroke="#262626" points="47.9947,20.06 50.7606,20.06" stroke-linecap="butt"/>
   <polyline fill="none" stroke-linejoin="miter" stroke-width="0.5" stroke="#262626" points="324.288,20.06 321.522,20.06" stroke-linecap="butt"/>
   <text xml:space="preserve" transform="translate(4.98938,242.046) rotate(-0,38,-4)" font-style="normal" font-size="10" font-family="FreeSans" font-weight="normal">
    <tspan fill="rgb(38,38,38)" x="0 6 9 15 20 26 32 " y="-0">1.4e+06</tspan>
   </text>
   <text xml:space="preserve" transform="translate(4.98938,205.715) rotate(-0,38,-4)" font-style="normal" font-size="10" font-family="FreeSans" font-weight="normal">
    <tspan fill="rgb(38,38,38)" x="0 6 9 15 20 26 32 " y="-0">1.5e+06</tspan>
   </text>
   <text xml:space="preserve" transform="translate(4.98938,169.384) rotate(-0,38,-4)" font-style="normal" font-size="10" font-family="FreeSans" font-weight="normal">
    <tspan fill="rgb(38,38,38)" x="0 6 9 15 20 26 32 " y="-0">1.6e+06</tspan>
   </text>
   <text xml:space="preserve" transform="translate(4.98938,133.053) rotate(-0,38,-4)" font-style="normal" font-size="10" font-family="FreeSans" font-weight="normal">
    <tspan fill="rgb(38,38,38)" x="0 6 9 15 20 26 32 " y="-0">1.7e+06</tspan>
   </text>
   <text xml:space="preserve" transform="translate(4.98938,96.7219) rotate(-0,38,-4)" font-style="normal" font-size="10" font-family="FreeSans" font-weight="normal">
    <tspan fill="rgb(38,38,38)" x="0 6 9 15 20 26 32 " y="-0">1.8e+06</tspan>
   </text>
   <text xml:space="preserve" transform="translate(4.98938,60.391) rotate(-0,38,-4)" font-style="normal" font-size="10" font-family="FreeSans" font-weight="normal">
    <tspan fill="rgb(38,38,38)" x="0 6 9 15 20 26 32 " y="-0">1.9e+06</tspan>
   </text>
   <text xml:space="preserve" transform="translate(13.9894,24.06) rotate(-0,29,-4)" font-style="normal" font-size="10" font-family="FreeSans" font-weight="normal">
    <tspan fill="rgb(38,38,38)" x="0 6 11 17 23 " y="-0">2e+06</tspan>
   </text>
   <polyline fill="none" stroke-linejoin="miter" stroke-dasharray="16,0" stroke-width="0.5" stroke="#262626" points="47.9947,238.046 324.288,238.046" stroke-linecap="square"/>
   <polyline fill="none" stroke-linejoin="miter" stroke-dasharray="16,0" stroke-width="0.5" stroke="#262626" points="47.9947,20.06 324.288,20.06" stroke-linecap="square"/>
   <polyline fill="none" stroke-linejoin="miter" stroke-dasharray="16,0" stroke-width="0.5" stroke="#262626" points="47.9947,238.046 47.9947,20.06" stroke-linecap="square"/>
   <polyline fill="none" stroke-linejoin="miter" stroke-dasharray="16,0" stroke-width="0.5" stroke="#262626" points="324.288,238.046 324.288,20.06" stroke-linecap="square"/>
   <polyline fill="none" stroke-linejoin="round" stroke-width="0.5" stroke="#0000ff" points="51.4484,76.93 54.902,78.6895 58.3557,66.096 61.8094,31.3727 65.263,27.7655 68.7167,51.9044 72.1703,44.697 75.624,25.0099 79.0777,40.9432 82.5313,129.725 85.985,73.3199 89.4387,59.1231 92.8923,133.356 96.346,85.697 99.7997,77.5193 103.253,116.371 106.707,90.301 110.161,81.6171 113.614,131.296 117.068,112.372 120.522,116.211 123.975,99.5379 127.429,107.823 130.883,135.839 134.336,153.628 137.79,116.437 141.244,142.716 144.697,143.841 148.151,151.917 151.605,170.401 155.058,177.561 158.512,166.259 161.966,197.051 165.419,176.841 168.873,193.97 172.327,204.146 175.78,201.292 179.234,203.049 182.688,207.046 186.141,217.285 189.595,208.289 193.049,212.222 196.502,208.483 199.956,211.146 203.41,215.463 206.863,215.811 210.317,211.708 213.771,211.708 217.224,211.708 220.678,219.089 224.132,211.708 227.585,211.708 231.039,211.708 234.493,211.708 237.946,211.708 241.4,211.708 244.854,211.708 248.307,211.708 251.761,211.708 255.215,211.708 258.668,211.708 262.122,211.708 265.576,211.708 269.029,211.708 272.483,211.708 275.937,211.708 279.39,211.708 282.844,211.708 286.298,211.708 289.751,211.708 293.205,211.708 296.659,211.708 300.112,211.708 303.566,211.708 307.02,211.708" stroke-linecap="butt"/>
   <polyline fill="none" stroke-linejoin="round" stroke-width="0.5" stroke="#ff0000" points="51.4484,76.93 54.902,78.6895 58.3557,78.6895 61.8094,78.6895 65.263,78.6895 68.7167,78.6895 72.1703,78.6895 75.624,78.6895 79.0777,78.6895 82.5313,129.725 85.985,129.725 89.4387,129.725 92.8923,133.356 96.346,133.356 99.7997,133.356 103.253,133.356 106.707,133.356 110.161,133.356 113.614,133.356 117.068,133.356 120.522,133.356 123.975,133.356 127.429,133.356 130.883,135.839 134.336,153.628 137.79,153.628 141.244,153.628 144.697,153.628 148.151,153.628 151.605,170.401 155.058,177.561 158.512,177.561 161.966,197.051 165.419,197.051 168.873,197.051 172.327,204.146 175.78,204.146 179.234,204.146 182.688,207.046 186.141,217.285 189.595,217.285 193.049,217.285 196.502,217.285 199.956,217.285 203.41,217.285 206.863,217.285 210.317,217.285 213.771,217.285 217.224,217.285 220.678,219.089 224.132,219.089 227.585,219.089 231.039,219.089 234.493,219.089 237.946,219.089 241.4,219.089 244.854,219.089 248.307,219.089 251.761,219.089 255.215,219.089 258.668,219.089 262.122,219.089 265.576,219.089 269.029,219.089 272.483,219.089 275.937,219.089 279.39,219.089 282.844,219.089 286.298,219.089 289.751,219.089 293.205,219.089 296.659,219.089 300.112,219.089 303.566,219.089 307.02,219.089" stroke-linecap="butt"/>
  </g>
 </g>
</svg>
