<?xml version='1.0' encoding='UTF-8' standalone='no'?>
<svg xmlns="http://www.w3.org/2000/svg" width="358pt" height="267pt" viewBox="0 0 358 267" xmlns:xlink="http://www.w3.org/1999/xlink">
 <title>gl2ps_renderer figure</title>
 <desc>
Creator: GL2PS 1.4.2, (C) 1999-2020 C. Geuzaine
For: Octave
CreationDate: Sun Jun 27 12:12:11 2021
</desc>
 <defs/>
 <polygon points="0,0 358,0 358,267 0,267" fill="#ffffff"/>
 <g>
  <polygon points="0,267 358,267 358,0 0,0" shape-rendering="crispEdges" fill="#ffffff"/>
  <clipPath id="cp00358267">
   <polygon points="0,267 358,267 358,0 0,0"/>
  </clipPath>
  <g clip-path="url(#cp00358267)">
   <polygon points="47.9947,238.046 324.288,238.046 324.288,20.0601 47.9947,20.0601" shape-rendering="crispEdges" fill="#ffffff"/>
   <polyline points="47.9947,238.046 47.9947,235.283" stroke-linejoin="miter" stroke-linecap="butt" stroke="#262626" fill="none" stroke-width="0.5"/>
   <polyline points="47.9947,20.0601 47.9947,22.8228" stroke-linejoin="miter" stroke-linecap="butt" stroke="#262626" fill="none" stroke-width="0.5"/>
   <polyline points="103.253,238.046 103.253,235.283" stroke-linejoin="miter" stroke-linecap="butt" stroke="#262626" fill="none" stroke-width="0.5"/>
   <polyline points="103.253,20.0601 103.253,22.8228" stroke-linejoin="miter" stroke-linecap="butt" stroke="#262626" fill="none" stroke-width="0.5"/>
   <polyline points="158.512,238.046 158.512,235.283" stroke-linejoin="miter" stroke-linecap="butt" stroke="#262626" fill="none" stroke-width="0.5"/>
   <polyline points="158.512,20.0601 158.512,22.8228" stroke-linejoin="miter" stroke-linecap="butt" stroke="#262626" fill="none" stroke-width="0.5"/>
   <polyline points="213.771,238.046 213.771,235.283" stroke-linejoin="miter" stroke-linecap="butt" stroke="#262626" fill="none" stroke-width="0.5"/>
   <polyline points="213.771,20.0601 213.771,22.8228" stroke-linejoin="miter" stroke-linecap="butt" stroke="#262626" fill="none" stroke-width="0.5"/>
   <polyline points="269.029,238.046 269.029,235.283" stroke-linejoin="miter" stroke-linecap="butt" stroke="#262626" fill="none" stroke-width="0.5"/>
   <polyline points="269.029,20.0601 269.029,22.8228" stroke-linejoin="miter" stroke-linecap="butt" stroke="#262626" fill="none" stroke-width="0.5"/>
   <polyline points="324.288,238.046 324.288,235.283" stroke-linejoin="miter" stroke-linecap="butt" stroke="#262626" fill="none" stroke-width="0.5"/>
   <polyline points="324.288,20.0601 324.288,22.8228" stroke-linejoin="miter" stroke-linecap="butt" stroke="#262626" fill="none" stroke-width="0.5"/>
   <text xml:space="preserve" transform="translate(44.9947,253.545) rotate(-0,3,-8)" font-family="FreeSans" font-style="normal" font-size="10" font-weight="normal">
    <tspan y="-0" x="0 " fill="rgb(38,38,38)">0</tspan>
   </text>
   <text xml:space="preserve" transform="translate(97.2533,253.545) rotate(-0,6,-8)" font-family="FreeSans" font-style="normal" font-size="10" font-weight="normal">
    <tspan y="-0" x="0 6 " fill="rgb(38,38,38)">10</tspan>
   </text>
   <text xml:space="preserve" transform="translate(152.512,253.545) rotate(-0,6,-8)" font-family="FreeSans" font-style="normal" font-size="10" font-weight="normal">
    <tspan y="-0" x="0 6 " fill="rgb(38,38,38)">20</tspan>
   </text>
   <text xml:space="preserve" transform="translate(207.771,253.545) rotate(-0,6,-8)" font-family="FreeSans" font-style="normal" font-size="10" font-weight="normal">
    <tspan y="-0" x="0 6 " fill="rgb(38,38,38)">30</tspan>
   </text>
   <text xml:space="preserve" transform="translate(263.029,253.545) rotate(-0,6,-8)" font-family="FreeSans" font-style="normal" font-size="10" font-weight="normal">
    <tspan y="-0" x="0 6 " fill="rgb(38,38,38)">40</tspan>
   </text>
   <text xml:space="preserve" transform="translate(318.288,253.545) rotate(-0,6,-8)" font-family="FreeSans" font-style="normal" font-size="10" font-weight="normal">
    <tspan y="-0" x="0 6 " fill="rgb(38,38,38)">50</tspan>
   </text>
   <polyline points="47.9947,238.046 50.7606,238.046" stroke-linejoin="miter" stroke-linecap="butt" stroke="#262626" fill="none" stroke-width="0.5"/>
   <polyline points="324.288,238.046 321.522,238.046" stroke-linejoin="miter" stroke-linecap="butt" stroke="#262626" fill="none" stroke-width="0.5"/>
   <polyline points="47.9947,183.549 50.7606,183.549" stroke-linejoin="miter" stroke-linecap="butt" stroke="#262626" fill="none" stroke-width="0.5"/>
   <polyline points="324.288,183.549 321.522,183.549" stroke-linejoin="miter" stroke-linecap="butt" stroke="#262626" fill="none" stroke-width="0.5"/>
   <polyline points="47.9947,129.053 50.7606,129.053" stroke-linejoin="miter" stroke-linecap="butt" stroke="#262626" fill="none" stroke-width="0.5"/>
   <polyline points="324.288,129.053 321.522,129.053" stroke-linejoin="miter" stroke-linecap="butt" stroke="#262626" fill="none" stroke-width="0.5"/>
   <polyline points="47.9947,74.5565 50.7606,74.5565" stroke-linejoin="miter" stroke-linecap="butt" stroke="#262626" fill="none" stroke-width="0.5"/>
   <polyline points="324.288,74.5565 321.522,74.5565" stroke-linejoin="miter" stroke-linecap="butt" stroke="#262626" fill="none" stroke-width="0.5"/>
   <polyline points="47.9947,20.0601 50.7606,20.0601" stroke-linejoin="miter" stroke-linecap="butt" stroke="#262626" fill="none" stroke-width="0.5"/>
   <polyline points="324.288,20.0601 321.522,20.0601" stroke-linejoin="miter" stroke-linecap="butt" stroke="#262626" fill="none" stroke-width="0.5"/>
   <text xml:space="preserve" transform="translate(4.98938,242.046) rotate(-0,38,-4)" font-family="FreeSans" font-style="normal" font-size="10" font-weight="normal">
    <tspan y="-0" x="0 6 9 15 20 26 32 " fill="rgb(38,38,38)">1.2e+06</tspan>
   </text>
   <text xml:space="preserve" transform="translate(4.98938,187.549) rotate(-0,38,-4)" font-family="FreeSans" font-style="normal" font-size="10" font-weight="normal">
    <tspan y="-0" x="0 6 9 15 20 26 32 " fill="rgb(38,38,38)">1.4e+06</tspan>
   </text>
   <text xml:space="preserve" transform="translate(4.98938,133.053) rotate(-0,38,-4)" font-family="FreeSans" font-style="normal" font-size="10" font-weight="normal">
    <tspan y="-0" x="0 6 9 15 20 26 32 " fill="rgb(38,38,38)">1.6e+06</tspan>
   </text>
   <text xml:space="preserve" transform="translate(4.98938,78.5565) rotate(-0,38,-4)" font-family="FreeSans" font-style="normal" font-size="10" font-weight="normal">
    <tspan y="-0" x="0 6 9 15 20 26 32 " fill="rgb(38,38,38)">1.8e+06</tspan>
   </text>
   <text xml:space="preserve" transform="translate(13.9894,24.06) rotate(-0,29,-4)" font-family="FreeSans" font-style="normal" font-size="10" font-weight="normal">
    <tspan y="-0" x="0 6 11 17 23 " fill="rgb(38,38,38)">2e+06</tspan>
   </text>
   <polyline points="47.9947,238.046 324.288,238.046" stroke-linejoin="miter" stroke-linecap="square" stroke="#262626" stroke-dasharray="16,0" fill="none" stroke-width="0.5"/>
   <polyline points="47.9947,20.0601 324.288,20.0601" stroke-linejoin="miter" stroke-linecap="square" stroke="#262626" stroke-dasharray="16,0" fill="none" stroke-width="0.5"/>
   <polyline points="47.9947,238.046 47.9947,20.0601" stroke-linejoin="miter" stroke-linecap="square" stroke="#262626" stroke-dasharray="16,0" fill="none" stroke-width="0.5"/>
   <polyline points="324.288,238.046 324.288,20.0601" stroke-linejoin="miter" stroke-linecap="square" stroke="#262626" stroke-dasharray="16,0" fill="none" stroke-width="0.5"/>
   <polyline points="53.5206,25.41 59.0464,43.1312 64.5723,60.5285 70.0982,55.5897 75.624,44.9067 81.1499,54.7916 86.6758,37.5236 92.2016,25.8765 97.7275,33.7621 103.253,52.5873 108.779,71.5195 114.305,59.3423 119.831,101.867 125.357,129.391 130.883,106.424 136.409,118.439 141.934,151.748 147.46,131.594 152.986,131.159 158.512,144.029 164.038,163.115 169.564,164.704 175.09,160.161 180.615,169.66 186.141,186.514 191.667,182.628 197.193,182.076 202.719,183.277 208.245,193.799 213.771,198.822 219.296,196.358 224.822,195.529 230.348,199.262 235.874,200.194 241.4,203.437 246.926,206.931 252.452,211.618 257.978,213.082 263.503,211.069 269.029,213.896 274.555,218.262 280.081,213.055 285.607,214.145 291.133,210.716 296.659,212.969" stroke-linejoin="round" stroke-linecap="butt" stroke="#0000ff" fill="none" stroke-width="0.5"/>
   <polyline points="53.5206,25.41 59.0464,43.1312 64.5723,60.5285 70.0982,60.5285 75.624,60.5285 81.1499,60.5285 86.6758,60.5285 92.2016,60.5285 97.7275,60.5285 103.253,60.5285 108.779,71.5195 114.305,71.5195 119.831,101.867 125.357,129.391 130.883,129.391 136.409,129.391 141.934,151.748 147.46,151.748 152.986,151.748 158.512,151.748 164.038,163.115 169.564,164.704 175.09,164.704 180.615,169.66 186.141,186.514 191.667,186.514 197.193,186.514 202.719,186.514 208.245,193.799 213.771,198.822 219.296,198.822 224.822,198.822 230.348,199.262 235.874,200.194 241.4,203.437 246.926,206.931 252.452,211.618 257.978,213.082 263.503,213.082 269.029,213.896 274.555,218.262 280.081,218.262 285.607,218.262 291.133,218.262 296.659,218.262" stroke-linejoin="round" stroke-linecap="butt" stroke="#ff0000" fill="none" stroke-width="0.5"/>
  </g>
 </g>
</svg>
