<?xml version='1.0' encoding='UTF-8' standalone='no'?>
<svg height="267pt" viewBox="0 0 358 267" width="358pt" xmlns:xlink="http://www.w3.org/1999/xlink" xmlns="http://www.w3.org/2000/svg">
 <title>gl2ps_renderer figure</title>
 <desc>
Creator: GL2PS 1.4.2, (C) 1999-2020 C. Geuzaine
For: Octave
CreationDate: Sun Jun 27 12:10:25 2021
</desc>
 <defs/>
 <polygon fill="#ffffff" points="0,0 358,0 358,267 0,267"/>
 <g>
  <polygon fill="#ffffff" shape-rendering="crispEdges" points="0,267 358,267 358,0 0,0"/>
  <clipPath id="cp00358267">
   <polygon points="0,267 358,267 358,0 0,0"/>
  </clipPath>
  <g clip-path="url(#cp00358267)">
   <polygon fill="#ffffff" shape-rendering="crispEdges" points="47.9947,238.046 324.288,238.046 324.288,20.0601 47.9947,20.0601"/>
   <polyline fill="none" stroke-linecap="butt" stroke-width="0.5" stroke-linejoin="miter" stroke="#262626" points="47.9947,238.046 47.9947,235.283"/>
   <polyline fill="none" stroke-linecap="butt" stroke-width="0.5" stroke-linejoin="miter" stroke="#262626" points="47.9947,20.0601 47.9947,22.8228"/>
   <polyline fill="none" stroke-linecap="butt" stroke-width="0.5" stroke-linejoin="miter" stroke="#262626" points="117.068,238.046 117.068,235.283"/>
   <polyline fill="none" stroke-linecap="butt" stroke-width="0.5" stroke-linejoin="miter" stroke="#262626" points="117.068,20.0601 117.068,22.8228"/>
   <polyline fill="none" stroke-linecap="butt" stroke-width="0.5" stroke-linejoin="miter" stroke="#262626" points="186.141,238.046 186.141,235.283"/>
   <polyline fill="none" stroke-linecap="butt" stroke-width="0.5" stroke-linejoin="miter" stroke="#262626" points="186.141,20.0601 186.141,22.8228"/>
   <polyline fill="none" stroke-linecap="butt" stroke-width="0.5" stroke-linejoin="miter" stroke="#262626" points="255.215,238.046 255.215,235.283"/>
   <polyline fill="none" stroke-linecap="butt" stroke-width="0.5" stroke-linejoin="miter" stroke="#262626" points="255.215,20.0601 255.215,22.8228"/>
   <polyline fill="none" stroke-linecap="butt" stroke-width="0.5" stroke-linejoin="miter" stroke="#262626" points="324.288,238.046 324.288,235.283"/>
   <polyline fill="none" stroke-linecap="butt" stroke-width="0.5" stroke-linejoin="miter" stroke="#262626" points="324.288,20.0601 324.288,22.8228"/>
   <text font-family="FreeSans" xml:space="preserve" transform="translate(44.9947,253.545) rotate(-0,3,-8)" font-size="10" font-weight="normal" font-style="normal">
    <tspan fill="rgb(38,38,38)" x="0 " y="-0">0</tspan>
   </text>
   <text font-family="FreeSans" xml:space="preserve" transform="translate(114.068,253.545) rotate(-0,3,-8)" font-size="10" font-weight="normal" font-style="normal">
    <tspan fill="rgb(38,38,38)" x="0 " y="-0">5</tspan>
   </text>
   <text font-family="FreeSans" xml:space="preserve" transform="translate(180.141,253.545) rotate(-0,6,-8)" font-size="10" font-weight="normal" font-style="normal">
    <tspan fill="rgb(38,38,38)" x="0 6 " y="-0">10</tspan>
   </text>
   <text font-family="FreeSans" xml:space="preserve" transform="translate(249.215,253.545) rotate(-0,6,-8)" font-size="10" font-weight="normal" font-style="normal">
    <tspan fill="rgb(38,38,38)" x="0 6 " y="-0">15</tspan>
   </text>
   <text font-family="FreeSans" xml:space="preserve" transform="translate(318.288,253.545) rotate(-0,6,-8)" font-size="10" font-weight="normal" font-style="normal">
    <tspan fill="rgb(38,38,38)" x="0 6 " y="-0">20</tspan>
   </text>
   <polyline fill="none" stroke-linecap="butt" stroke-width="0.5" stroke-linejoin="miter" stroke="#262626" points="47.9947,238.046 50.7606,238.046"/>
   <polyline fill="none" stroke-linecap="butt" stroke-width="0.5" stroke-linejoin="miter" stroke="#262626" points="324.288,238.046 321.522,238.046"/>
   <polyline fill="none" stroke-linecap="butt" stroke-width="0.5" stroke-linejoin="miter" stroke="#262626" points="47.9947,194.449 50.7606,194.449"/>
   <polyline fill="none" stroke-linecap="butt" stroke-width="0.5" stroke-linejoin="miter" stroke="#262626" points="324.288,194.449 321.522,194.449"/>
   <polyline fill="none" stroke-linecap="butt" stroke-width="0.5" stroke-linejoin="miter" stroke="#262626" points="47.9947,150.852 50.7606,150.852"/>
   <polyline fill="none" stroke-linecap="butt" stroke-width="0.5" stroke-linejoin="miter" stroke="#262626" points="324.288,150.852 321.522,150.852"/>
   <polyline fill="none" stroke-linecap="butt" stroke-width="0.5" stroke-linejoin="miter" stroke="#262626" points="47.9947,107.254 50.7606,107.254"/>
   <polyline fill="none" stroke-linecap="butt" stroke-width="0.5" stroke-linejoin="miter" stroke="#262626" points="324.288,107.254 321.522,107.254"/>
   <polyline fill="none" stroke-linecap="butt" stroke-width="0.5" stroke-linejoin="miter" stroke="#262626" points="47.9947,63.6573 50.7606,63.6573"/>
   <polyline fill="none" stroke-linecap="butt" stroke-width="0.5" stroke-linejoin="miter" stroke="#262626" points="324.288,63.6573 321.522,63.6573"/>
   <polyline fill="none" stroke-linecap="butt" stroke-width="0.5" stroke-linejoin="miter" stroke="#262626" points="47.9947,20.0601 50.7606,20.0601"/>
   <polyline fill="none" stroke-linecap="butt" stroke-width="0.5" stroke-linejoin="miter" stroke="#262626" points="324.288,20.0601 321.522,20.0601"/>
   <text font-family="FreeSans" xml:space="preserve" transform="translate(4.98938,242.046) rotate(-0,38,-4)" font-size="10" font-weight="normal" font-style="normal">
    <tspan fill="rgb(38,38,38)" x="0 6 9 15 20 26 32 " y="-0">1.6e+06</tspan>
   </text>
   <text font-family="FreeSans" xml:space="preserve" transform="translate(4.98938,198.449) rotate(-0,38,-4)" font-size="10" font-weight="normal" font-style="normal">
    <tspan fill="rgb(38,38,38)" x="0 6 9 15 20 26 32 " y="-0">1.7e+06</tspan>
   </text>
   <text font-family="FreeSans" xml:space="preserve" transform="translate(4.98938,154.851) rotate(-0,38,-4)" font-size="10" font-weight="normal" font-style="normal">
    <tspan fill="rgb(38,38,38)" x="0 6 9 15 20 26 32 " y="-0">1.8e+06</tspan>
   </text>
   <text font-family="FreeSans" xml:space="preserve" transform="translate(4.98938,111.254) rotate(-0,38,-4)" font-size="10" font-weight="normal" font-style="normal">
    <tspan fill="rgb(38,38,38)" x="0 6 9 15 20 26 32 " y="-0">1.9e+06</tspan>
   </text>
   <text font-family="FreeSans" xml:space="preserve" transform="translate(13.9894,67.6572) rotate(-0,29,-4)" font-size="10" font-weight="normal" font-style="normal">
    <tspan fill="rgb(38,38,38)" x="0 6 11 17 23 " y="-0">2e+06</tspan>
   </text>
   <text font-family="FreeSans" xml:space="preserve" transform="translate(4.98938,24.06) rotate(-0,38,-4)" font-size="10" font-weight="normal" font-style="normal">
    <tspan fill="rgb(38,38,38)" x="0 6 9 15 20 26 32 " y="-0">2.1e+06</tspan>
   </text>
   <polyline fill="none" stroke-dasharray="16,0" stroke-linecap="square" stroke-width="0.5" stroke-linejoin="miter" stroke="#262626" points="47.9947,238.046 324.288,238.046"/>
   <polyline fill="none" stroke-dasharray="16,0" stroke-linecap="square" stroke-width="0.5" stroke-linejoin="miter" stroke="#262626" points="47.9947,20.0601 324.288,20.0601"/>
   <polyline fill="none" stroke-dasharray="16,0" stroke-linecap="square" stroke-width="0.5" stroke-linejoin="miter" stroke="#262626" points="47.9947,238.046 47.9947,20.0601"/>
   <polyline fill="none" stroke-dasharray="16,0" stroke-linecap="square" stroke-width="0.5" stroke-linejoin="miter" stroke="#262626" points="324.288,238.046 324.288,20.0601"/>
   <polyline fill="none" stroke-linecap="butt" stroke-width="0.5" stroke-linejoin="round" stroke="#0000ff" points="61.8094,62.8553 75.624,39.1861 89.4387,70.1934 103.253,115.192 117.068,133.529 130.883,144.386 144.697,95.3324 158.512,105.142 172.327,159.594 186.141,139.786 199.956,170.053 213.771,173.745 227.585,172.27 241.4,160.385 255.215,214.733"/>
   <polyline fill="none" stroke-linecap="butt" stroke-width="0.5" stroke-linejoin="round" stroke="#ff0000" points="61.8094,62.8553 75.624,62.8553 89.4387,70.1934 103.253,115.192 117.068,133.529 130.883,144.386 144.697,144.386 158.512,144.386 172.327,159.594 186.141,159.594 199.956,170.053 213.771,173.745 227.585,173.745 241.4,173.745 255.215,214.733"/>
  </g>
 </g>
</svg>
