<?xml version='1.0' encoding='UTF-8' standalone='no'?>
<svg xmlns:xlink="http://www.w3.org/1999/xlink" height="267pt" viewBox="0 0 358 267" xmlns="http://www.w3.org/2000/svg" width="358pt">
 <title>gl2ps_renderer figure</title>
 <desc>
Creator: GL2PS 1.4.2, (C) 1999-2020 C. Geuzaine
For: Octave
CreationDate: Sun Jun 27 12:12:54 2021
</desc>
 <defs/>
 <polygon points="0,0 358,0 358,267 0,267" fill="#ffffff"/>
 <g>
  <polygon points="0,267 358,267 358,0 0,0" fill="#ffffff" shape-rendering="crispEdges"/>
  <clipPath id="cp00358267">
   <polygon points="0,267 358,267 358,0 0,0"/>
  </clipPath>
  <g clip-path="url(#cp00358267)">
   <polygon points="47.9947,238.046 324.288,238.046 324.288,20.06 47.9947,20.06" fill="#ffffff" shape-rendering="crispEdges"/>
   <polyline stroke-linejoin="miter" points="47.9947,238.046 47.9947,235.283" fill="none" stroke-width="0.5" stroke="#262626" stroke-linecap="butt"/>
   <polyline stroke-linejoin="miter" points="47.9947,20.06 47.9947,22.8228" fill="none" stroke-width="0.5" stroke="#262626" stroke-linecap="butt"/>
   <polyline stroke-linejoin="miter" points="94.0436,238.046 94.0436,235.283" fill="none" stroke-width="0.5" stroke="#262626" stroke-linecap="butt"/>
   <polyline stroke-linejoin="miter" points="94.0436,20.06 94.0436,22.8228" fill="none" stroke-width="0.5" stroke="#262626" stroke-linecap="butt"/>
   <polyline stroke-linejoin="miter" points="140.092,238.046 140.092,235.283" fill="none" stroke-width="0.5" stroke="#262626" stroke-linecap="butt"/>
   <polyline stroke-linejoin="miter" points="140.092,20.06 140.092,22.8228" fill="none" stroke-width="0.5" stroke="#262626" stroke-linecap="butt"/>
   <polyline stroke-linejoin="miter" points="186.141,238.046 186.141,235.283" fill="none" stroke-width="0.5" stroke="#262626" stroke-linecap="butt"/>
   <polyline stroke-linejoin="miter" points="186.141,20.06 186.141,22.8228" fill="none" stroke-width="0.5" stroke="#262626" stroke-linecap="butt"/>
   <polyline stroke-linejoin="miter" points="232.19,238.046 232.19,235.283" fill="none" stroke-width="0.5" stroke="#262626" stroke-linecap="butt"/>
   <polyline stroke-linejoin="miter" points="232.19,20.06 232.19,22.8228" fill="none" stroke-width="0.5" stroke="#262626" stroke-linecap="butt"/>
   <polyline stroke-linejoin="miter" points="278.239,238.046 278.239,235.283" fill="none" stroke-width="0.5" stroke="#262626" stroke-linecap="butt"/>
   <polyline stroke-linejoin="miter" points="278.239,20.06 278.239,22.8228" fill="none" stroke-width="0.5" stroke="#262626" stroke-linecap="butt"/>
   <polyline stroke-linejoin="miter" points="324.288,238.046 324.288,235.283" fill="none" stroke-width="0.5" stroke="#262626" stroke-linecap="butt"/>
   <polyline stroke-linejoin="miter" points="324.288,20.06 324.288,22.8228" fill="none" stroke-width="0.5" stroke="#262626" stroke-linecap="butt"/>
   <text font-weight="normal" font-family="FreeSans" transform="translate(44.9947,253.545) rotate(-0,3,-8)" font-size="10" xml:space="preserve" font-style="normal">
    <tspan fill="rgb(38,38,38)" y="-0" x="0 ">0</tspan>
   </text>
   <text font-weight="normal" font-family="FreeSans" transform="translate(88.0436,253.545) rotate(-0,6,-8)" font-size="10" xml:space="preserve" font-style="normal">
    <tspan fill="rgb(38,38,38)" y="-0" x="0 6 ">10</tspan>
   </text>
   <text font-weight="normal" font-family="FreeSans" transform="translate(134.092,253.545) rotate(-0,6,-8)" font-size="10" xml:space="preserve" font-style="normal">
    <tspan fill="rgb(38,38,38)" y="-0" x="0 6 ">20</tspan>
   </text>
   <text font-weight="normal" font-family="FreeSans" transform="translate(180.141,253.545) rotate(-0,6,-8)" font-size="10" xml:space="preserve" font-style="normal">
    <tspan fill="rgb(38,38,38)" y="-0" x="0 6 ">30</tspan>
   </text>
   <text font-weight="normal" font-family="FreeSans" transform="translate(226.19,253.545) rotate(-0,6,-8)" font-size="10" xml:space="preserve" font-style="normal">
    <tspan fill="rgb(38,38,38)" y="-0" x="0 6 ">40</tspan>
   </text>
   <text font-weight="normal" font-family="FreeSans" transform="translate(272.239,253.545) rotate(-0,6,-8)" font-size="10" xml:space="preserve" font-style="normal">
    <tspan fill="rgb(38,38,38)" y="-0" x="0 6 ">50</tspan>
   </text>
   <text font-weight="normal" font-family="FreeSans" transform="translate(318.288,253.545) rotate(-0,6,-8)" font-size="10" xml:space="preserve" font-style="normal">
    <tspan fill="rgb(38,38,38)" y="-0" x="0 6 ">60</tspan>
   </text>
   <polyline stroke-linejoin="miter" points="47.9947,238.046 50.7606,238.046" fill="none" stroke-width="0.5" stroke="#262626" stroke-linecap="butt"/>
   <polyline stroke-linejoin="miter" points="324.288,238.046 321.522,238.046" fill="none" stroke-width="0.5" stroke="#262626" stroke-linecap="butt"/>
   <polyline stroke-linejoin="miter" points="47.9947,194.449 50.7606,194.449" fill="none" stroke-width="0.5" stroke="#262626" stroke-linecap="butt"/>
   <polyline stroke-linejoin="miter" points="324.288,194.449 321.522,194.449" fill="none" stroke-width="0.5" stroke="#262626" stroke-linecap="butt"/>
   <polyline stroke-linejoin="miter" points="47.9947,150.851 50.7606,150.851" fill="none" stroke-width="0.5" stroke="#262626" stroke-linecap="butt"/>
   <polyline stroke-linejoin="miter" points="324.288,150.851 321.522,150.851" fill="none" stroke-width="0.5" stroke="#262626" stroke-linecap="butt"/>
   <polyline stroke-linejoin="miter" points="47.9947,107.254 50.7606,107.254" fill="none" stroke-width="0.5" stroke="#262626" stroke-linecap="butt"/>
   <polyline stroke-linejoin="miter" points="324.288,107.254 321.522,107.254" fill="none" stroke-width="0.5" stroke="#262626" stroke-linecap="butt"/>
   <polyline stroke-linejoin="miter" points="47.9947,63.6572 50.7606,63.6572" fill="none" stroke-width="0.5" stroke="#262626" stroke-linecap="butt"/>
   <polyline stroke-linejoin="miter" points="324.288,63.6572 321.522,63.6572" fill="none" stroke-width="0.5" stroke="#262626" stroke-linecap="butt"/>
   <polyline stroke-linejoin="miter" points="47.9947,20.06 50.7606,20.06" fill="none" stroke-width="0.5" stroke="#262626" stroke-linecap="butt"/>
   <polyline stroke-linejoin="miter" points="324.288,20.06 321.522,20.06" fill="none" stroke-width="0.5" stroke="#262626" stroke-linecap="butt"/>
   <text font-weight="normal" font-family="FreeSans" transform="translate(4.98938,242.046) rotate(-0,38,-4)" font-size="10" xml:space="preserve" font-style="normal">
    <tspan fill="rgb(38,38,38)" y="-0" x="0 6 9 15 20 26 32 ">1.2e+06</tspan>
   </text>
   <text font-weight="normal" font-family="FreeSans" transform="translate(4.98938,198.449) rotate(-0,38,-4)" font-size="10" xml:space="preserve" font-style="normal">
    <tspan fill="rgb(38,38,38)" y="-0" x="0 6 9 15 20 26 32 ">1.4e+06</tspan>
   </text>
   <text font-weight="normal" font-family="FreeSans" transform="translate(4.98938,154.851) rotate(-0,38,-4)" font-size="10" xml:space="preserve" font-style="normal">
    <tspan fill="rgb(38,38,38)" y="-0" x="0 6 9 15 20 26 32 ">1.6e+06</tspan>
   </text>
   <text font-weight="normal" font-family="FreeSans" transform="translate(4.98938,111.254) rotate(-0,38,-4)" font-size="10" xml:space="preserve" font-style="normal">
    <tspan fill="rgb(38,38,38)" y="-0" x="0 6 9 15 20 26 32 ">1.8e+06</tspan>
   </text>
   <text font-weight="normal" font-family="FreeSans" transform="translate(13.9894,67.6572) rotate(-0,29,-4)" font-size="10" xml:space="preserve" font-style="normal">
    <tspan fill="rgb(38,38,38)" y="-0" x="0 6 11 17 23 ">2e+06</tspan>
   </text>
   <text font-weight="normal" font-family="FreeSans" transform="translate(4.98938,24.06) rotate(-0,38,-4)" font-size="10" xml:space="preserve" font-style="normal">
    <tspan fill="rgb(38,38,38)" y="-0" x="0 6 9 15 20 26 32 ">2.2e+06</tspan>
   </text>
   <polyline stroke-linejoin="miter" points="47.9947,238.046 324.288,238.046" fill="none" stroke-width="0.5" stroke="#262626" stroke-dasharray="16,0" stroke-linecap="square"/>
   <polyline stroke-linejoin="miter" points="47.9947,20.06 324.288,20.06" fill="none" stroke-width="0.5" stroke="#262626" stroke-dasharray="16,0" stroke-linecap="square"/>
   <polyline stroke-linejoin="miter" points="47.9947,238.046 47.9947,20.06" fill="none" stroke-width="0.5" stroke="#262626" stroke-dasharray="16,0" stroke-linecap="square"/>
   <polyline stroke-linejoin="miter" points="324.288,238.046 324.288,20.06" fill="none" stroke-width="0.5" stroke="#262626" stroke-dasharray="16,0" stroke-linecap="square"/>
   <polyline stroke-linejoin="round" points="52.5996,74.6214 57.2045,66.6891 61.8094,90.7126 66.4142,73.4435 71.0191,90.8931 75.624,71.4563 80.2289,60.4721 84.8338,76.7548 89.4387,89.5491 94.0436,107.361 98.6485,152.324 103.253,118.09 107.858,141.032 112.463,132.611 117.068,107.379 121.673,151.888 126.278,144.706 130.883,146.471 135.488,136.452 140.092,152.537 144.697,146.726 149.302,154.667 153.907,167.77 158.512,159.776 163.117,173.207 167.722,180.336 172.327,172.034 176.932,174.323 181.536,187.394 186.141,177.655 190.746,195.201 195.351,196.032 199.956,186.183 204.561,197.765 209.166,209.292 213.771,198.59 218.376,204.052 222.98,209.433 227.585,210.986 232.19,214.043 236.795,212.484 241.4,209.466 246.005,214.877 250.61,214.701 255.215,213.492 259.819,216.865 264.424,217.425 269.029,215.982 273.634,217.425 278.239,217.631 282.844,217.562 287.449,217.982 292.054,217.562 296.659,217.776 301.263,218.489" fill="none" stroke-width="0.5" stroke="#0000ff" stroke-linecap="butt"/>
   <polyline stroke-linejoin="round" points="52.5996,74.6214 57.2045,74.6214 61.8094,90.7126 66.4142,90.7126 71.0191,90.8931 75.624,90.8931 80.2289,90.8931 84.8338,90.8931 89.4387,90.8931 94.0436,107.361 98.6485,152.324 103.253,152.324 107.858,152.324 112.463,152.324 117.068,152.324 121.673,152.324 126.278,152.324 130.883,152.324 135.488,152.324 140.092,152.537 144.697,152.537 149.302,154.667 153.907,167.77 158.512,167.77 163.117,173.207 167.722,180.336 172.327,180.336 176.932,180.336 181.536,187.394 186.141,187.394 190.746,195.201 195.351,196.032 199.956,196.032 204.561,197.765 209.166,209.292 213.771,209.292 218.376,209.292 222.98,209.433 227.585,210.986 232.19,214.043 236.795,214.043 241.4,214.043 246.005,214.877 250.61,214.877 255.215,214.877 259.819,216.865 264.424,217.425 269.029,217.425 273.634,217.425 278.239,217.631 282.844,217.631 287.449,217.982 292.054,217.982 296.659,217.982 301.263,218.489" fill="none" stroke-width="0.5" stroke="#ff0000" stroke-linecap="butt"/>
  </g>
 </g>
</svg>
