<?xml version='1.0' encoding='UTF-8' standalone='no'?>
<svg height="267pt" viewBox="0 0 358 267" xmlns="http://www.w3.org/2000/svg" width="358pt" xmlns:xlink="http://www.w3.org/1999/xlink">
 <title>gl2ps_renderer figure</title>
 <desc>
Creator: GL2PS 1.4.2, (C) 1999-2020 C. Geuzaine
For: Octave
CreationDate: Sun Jun 27 12:11:02 2021
</desc>
 <defs/>
 <polygon fill="#ffffff" points="0,0 358,0 358,267 0,267"/>
 <g>
  <polygon shape-rendering="crispEdges" fill="#ffffff" points="0,267 358,267 358,0 0,0"/>
  <clipPath id="cp00358267">
   <polygon points="0,267 358,267 358,0 0,0"/>
  </clipPath>
  <g clip-path="url(#cp00358267)">
   <polygon shape-rendering="crispEdges" fill="#ffffff" points="47.9947,238.046 324.288,238.046 324.288,20.0601 47.9947,20.0601"/>
   <polyline stroke="#262626" stroke-width="0.5" fill="none" stroke-linecap="butt" points="47.9947,238.046 47.9947,235.283" stroke-linejoin="miter"/>
   <polyline stroke="#262626" stroke-width="0.5" fill="none" stroke-linecap="butt" points="47.9947,20.0601 47.9947,22.8228" stroke-linejoin="miter"/>
   <polyline stroke="#262626" stroke-width="0.5" fill="none" stroke-linecap="butt" points="103.253,238.046 103.253,235.283" stroke-linejoin="miter"/>
   <polyline stroke="#262626" stroke-width="0.5" fill="none" stroke-linecap="butt" points="103.253,20.0601 103.253,22.8228" stroke-linejoin="miter"/>
   <polyline stroke="#262626" stroke-width="0.5" fill="none" stroke-linecap="butt" points="158.512,238.046 158.512,235.283" stroke-linejoin="miter"/>
   <polyline stroke="#262626" stroke-width="0.5" fill="none" stroke-linecap="butt" points="158.512,20.0601 158.512,22.8228" stroke-linejoin="miter"/>
   <polyline stroke="#262626" stroke-width="0.5" fill="none" stroke-linecap="butt" points="213.771,238.046 213.771,235.283" stroke-linejoin="miter"/>
   <polyline stroke="#262626" stroke-width="0.5" fill="none" stroke-linecap="butt" points="213.771,20.0601 213.771,22.8228" stroke-linejoin="miter"/>
   <polyline stroke="#262626" stroke-width="0.5" fill="none" stroke-linecap="butt" points="269.029,238.046 269.029,235.283" stroke-linejoin="miter"/>
   <polyline stroke="#262626" stroke-width="0.5" fill="none" stroke-linecap="butt" points="269.029,20.0601 269.029,22.8228" stroke-linejoin="miter"/>
   <polyline stroke="#262626" stroke-width="0.5" fill="none" stroke-linecap="butt" points="324.288,238.046 324.288,235.283" stroke-linejoin="miter"/>
   <polyline stroke="#262626" stroke-width="0.5" fill="none" stroke-linecap="butt" points="324.288,20.0601 324.288,22.8228" stroke-linejoin="miter"/>
   <text transform="translate(44.9947,253.545) rotate(-0,3,-8)" font-weight="normal" xml:space="preserve" font-size="10" font-family="FreeSans" font-style="normal">
    <tspan x="0 " y="-0" fill="rgb(38,38,38)">0</tspan>
   </text>
   <text transform="translate(100.253,253.545) rotate(-0,3,-8)" font-weight="normal" xml:space="preserve" font-size="10" font-family="FreeSans" font-style="normal">
    <tspan x="0 " y="-0" fill="rgb(38,38,38)">5</tspan>
   </text>
   <text transform="translate(152.512,253.545) rotate(-0,6,-8)" font-weight="normal" xml:space="preserve" font-size="10" font-family="FreeSans" font-style="normal">
    <tspan x="0 6 " y="-0" fill="rgb(38,38,38)">10</tspan>
   </text>
   <text transform="translate(207.771,253.545) rotate(-0,6,-8)" font-weight="normal" xml:space="preserve" font-size="10" font-family="FreeSans" font-style="normal">
    <tspan x="0 6 " y="-0" fill="rgb(38,38,38)">15</tspan>
   </text>
   <text transform="translate(263.029,253.545) rotate(-0,6,-8)" font-weight="normal" xml:space="preserve" font-size="10" font-family="FreeSans" font-style="normal">
    <tspan x="0 6 " y="-0" fill="rgb(38,38,38)">20</tspan>
   </text>
   <text transform="translate(318.288,253.545) rotate(-0,6,-8)" font-weight="normal" xml:space="preserve" font-size="10" font-family="FreeSans" font-style="normal">
    <tspan x="0 6 " y="-0" fill="rgb(38,38,38)">25</tspan>
   </text>
   <polyline stroke="#262626" stroke-width="0.5" fill="none" stroke-linecap="butt" points="47.9947,238.046 50.7606,238.046" stroke-linejoin="miter"/>
   <polyline stroke="#262626" stroke-width="0.5" fill="none" stroke-linecap="butt" points="324.288,238.046 321.522,238.046" stroke-linejoin="miter"/>
   <polyline stroke="#262626" stroke-width="0.5" fill="none" stroke-linecap="butt" points="47.9947,194.449 50.7606,194.449" stroke-linejoin="miter"/>
   <polyline stroke="#262626" stroke-width="0.5" fill="none" stroke-linecap="butt" points="324.288,194.449 321.522,194.449" stroke-linejoin="miter"/>
   <polyline stroke="#262626" stroke-width="0.5" fill="none" stroke-linecap="butt" points="47.9947,150.852 50.7606,150.852" stroke-linejoin="miter"/>
   <polyline stroke="#262626" stroke-width="0.5" fill="none" stroke-linecap="butt" points="324.288,150.852 321.522,150.852" stroke-linejoin="miter"/>
   <polyline stroke="#262626" stroke-width="0.5" fill="none" stroke-linecap="butt" points="47.9947,107.254 50.7606,107.254" stroke-linejoin="miter"/>
   <polyline stroke="#262626" stroke-width="0.5" fill="none" stroke-linecap="butt" points="324.288,107.254 321.522,107.254" stroke-linejoin="miter"/>
   <polyline stroke="#262626" stroke-width="0.5" fill="none" stroke-linecap="butt" points="47.9947,63.6572 50.7606,63.6572" stroke-linejoin="miter"/>
   <polyline stroke="#262626" stroke-width="0.5" fill="none" stroke-linecap="butt" points="324.288,63.6572 321.522,63.6572" stroke-linejoin="miter"/>
   <polyline stroke="#262626" stroke-width="0.5" fill="none" stroke-linecap="butt" points="47.9947,20.0601 50.7606,20.0601" stroke-linejoin="miter"/>
   <polyline stroke="#262626" stroke-width="0.5" fill="none" stroke-linecap="butt" points="324.288,20.0601 321.522,20.0601" stroke-linejoin="miter"/>
   <text transform="translate(4.98938,242.046) rotate(-0,38,-4)" font-weight="normal" xml:space="preserve" font-size="10" font-family="FreeSans" font-style="normal">
    <tspan x="0 6 9 15 20 26 32 " y="-0" fill="rgb(38,38,38)">1.5e+06</tspan>
   </text>
   <text transform="translate(4.98938,198.449) rotate(-0,38,-4)" font-weight="normal" xml:space="preserve" font-size="10" font-family="FreeSans" font-style="normal">
    <tspan x="0 6 9 15 20 26 32 " y="-0" fill="rgb(38,38,38)">1.6e+06</tspan>
   </text>
   <text transform="translate(4.98938,154.851) rotate(-0,38,-4)" font-weight="normal" xml:space="preserve" font-size="10" font-family="FreeSans" font-style="normal">
    <tspan x="0 6 9 15 20 26 32 " y="-0" fill="rgb(38,38,38)">1.7e+06</tspan>
   </text>
   <text transform="translate(4.98938,111.254) rotate(-0,38,-4)" font-weight="normal" xml:space="preserve" font-size="10" font-family="FreeSans" font-style="normal">
    <tspan x="0 6 9 15 20 26 32 " y="-0" fill="rgb(38,38,38)">1.8e+06</tspan>
   </text>
   <text transform="translate(4.98938,67.6572) rotate(-0,38,-4)" font-weight="normal" xml:space="preserve" font-size="10" font-family="FreeSans" font-style="normal">
    <tspan x="0 6 9 15 20 26 32 " y="-0" fill="rgb(38,38,38)">1.9e+06</tspan>
   </text>
   <text transform="translate(13.9894,24.06) rotate(-0,29,-4)" font-weight="normal" xml:space="preserve" font-size="10" font-family="FreeSans" font-style="normal">
    <tspan x="0 6 11 17 23 " y="-0" fill="rgb(38,38,38)">2e+06</tspan>
   </text>
   <polyline stroke-dasharray="16,0" stroke="#262626" stroke-width="0.5" fill="none" stroke-linecap="square" points="47.9947,238.046 324.288,238.046" stroke-linejoin="miter"/>
   <polyline stroke-dasharray="16,0" stroke="#262626" stroke-width="0.5" fill="none" stroke-linecap="square" points="47.9947,20.0601 324.288,20.0601" stroke-linejoin="miter"/>
   <polyline stroke-dasharray="16,0" stroke="#262626" stroke-width="0.5" fill="none" stroke-linecap="square" points="47.9947,238.046 47.9947,20.0601" stroke-linejoin="miter"/>
   <polyline stroke-dasharray="16,0" stroke="#262626" stroke-width="0.5" fill="none" stroke-linecap="square" points="324.288,238.046 324.288,20.0601" stroke-linejoin="miter"/>
   <polyline stroke="#0000ff" stroke-width="0.5" fill="none" stroke-linecap="butt" points="59.0464,94.1309 70.0982,44.0603 81.1499,72.7431 92.2016,23.2238 103.253,45.6723 114.305,53.4588 125.357,71.8112 136.409,52.552 147.46,61.6569 158.512,111.216 169.564,121.809 180.615,102.371 191.667,148.039 202.719,141.884 213.771,168.111 224.822,154.239 235.874,201.18 246.926,170.491 257.978,207.608 269.029,176.855 280.081,218.226 291.133,188.178 302.184,204.484 313.236,222.391 324.288,235.005" stroke-linejoin="round"/>
   <polyline stroke="#ff0000" stroke-width="0.5" fill="none" stroke-linecap="butt" points="59.0464,94.1309 70.0982,94.1309 81.1499,94.1309 92.2016,94.1309 103.253,94.1309 114.305,94.1309 125.357,94.1309 136.409,94.1309 147.46,94.1309 158.512,111.216 169.564,121.809 180.615,121.809 191.667,148.039 202.719,148.039 213.771,168.111 224.822,168.111 235.874,201.18 246.926,201.18 257.978,207.608 269.029,207.608 280.081,218.226 291.133,218.226 302.184,218.226 313.236,222.391 324.288,235.005" stroke-linejoin="round"/>
  </g>
 </g>
</svg>
