<?xml version='1.0' encoding='UTF-8' standalone='no'?>
<svg viewBox="0 0 358 267" width="358pt" xmlns="http://www.w3.org/2000/svg" xmlns:xlink="http://www.w3.org/1999/xlink" height="267pt">
 <title>gl2ps_renderer figure</title>
 <desc>
Creator: GL2PS 1.4.2, (C) 1999-2020 C. Geuzaine
For: Octave
CreationDate: Sun Jun 27 12:04:59 2021
</desc>
 <defs/>
 <polygon points="0,0 358,0 358,267 0,267" fill="#ffffff"/>
 <g>
  <polygon shape-rendering="crispEdges" points="0,267 358,267 358,0 0,0" fill="#ffffff"/>
  <clipPath id="cp00358267">
   <polygon points="0,267 358,267 358,0 0,0"/>
  </clipPath>
  <g clip-path="url(#cp00358267)">
   <polygon shape-rendering="crispEdges" points="46.5828,238.046 324.288,238.046 324.288,20.06 46.5828,20.06" fill="#ffffff"/>
   <polyline stroke="#262626" stroke-linecap="butt" points="46.5828,238.046 46.5828,235.269" fill="none" stroke-width="0.5" stroke-linejoin="miter"/>
   <polyline stroke="#262626" stroke-linecap="butt" points="46.5828,20.06 46.5828,22.8368" fill="none" stroke-width="0.5" stroke-linejoin="miter"/>
   <polyline stroke="#262626" stroke-linecap="butt" points="116.009,238.046 116.009,235.269" fill="none" stroke-width="0.5" stroke-linejoin="miter"/>
   <polyline stroke="#262626" stroke-linecap="butt" points="116.009,20.06 116.009,22.8368" fill="none" stroke-width="0.5" stroke-linejoin="miter"/>
   <polyline stroke="#262626" stroke-linecap="butt" points="185.435,238.046 185.435,235.269" fill="none" stroke-width="0.5" stroke-linejoin="miter"/>
   <polyline stroke="#262626" stroke-linecap="butt" points="185.435,20.06 185.435,22.8368" fill="none" stroke-width="0.5" stroke-linejoin="miter"/>
   <polyline stroke="#262626" stroke-linecap="butt" points="254.862,238.046 254.862,235.269" fill="none" stroke-width="0.5" stroke-linejoin="miter"/>
   <polyline stroke="#262626" stroke-linecap="butt" points="254.862,20.06 254.862,22.8368" fill="none" stroke-width="0.5" stroke-linejoin="miter"/>
   <polyline stroke="#262626" stroke-linecap="butt" points="324.288,238.046 324.288,235.269" fill="none" stroke-width="0.5" stroke-linejoin="miter"/>
   <polyline stroke="#262626" stroke-linecap="butt" points="324.288,20.06 324.288,22.8368" fill="none" stroke-width="0.5" stroke-linejoin="miter"/>
   <text font-weight="normal" transform="translate(43.5828,253.545) rotate(-0,3,-8)" xml:space="preserve" font-style="normal" font-family="FreeSans" font-size="10">
    <tspan y="-0" fill="rgb(38,38,38)" x="0 ">1</tspan>
   </text>
   <text font-weight="normal" transform="translate(113.009,253.545) rotate(-0,3,-8)" xml:space="preserve" font-style="normal" font-family="FreeSans" font-size="10">
    <tspan y="-0" fill="rgb(38,38,38)" x="0 ">2</tspan>
   </text>
   <text font-weight="normal" transform="translate(182.435,253.545) rotate(-0,3,-8)" xml:space="preserve" font-style="normal" font-family="FreeSans" font-size="10">
    <tspan y="-0" fill="rgb(38,38,38)" x="0 ">3</tspan>
   </text>
   <text font-weight="normal" transform="translate(251.862,253.545) rotate(-0,3,-8)" xml:space="preserve" font-style="normal" font-family="FreeSans" font-size="10">
    <tspan y="-0" fill="rgb(38,38,38)" x="0 ">4</tspan>
   </text>
   <text font-weight="normal" transform="translate(321.288,253.545) rotate(-0,3,-8)" xml:space="preserve" font-style="normal" font-family="FreeSans" font-size="10">
    <tspan y="-0" fill="rgb(38,38,38)" x="0 ">5</tspan>
   </text>
   <polyline stroke="#262626" stroke-linecap="butt" points="46.5828,238.046 49.3569,238.046" fill="none" stroke-width="0.5" stroke-linejoin="miter"/>
   <polyline stroke="#262626" stroke-linecap="butt" points="324.288,238.046 321.514,238.046" fill="none" stroke-width="0.5" stroke-linejoin="miter"/>
   <polyline stroke="#262626" stroke-linecap="butt" points="46.5828,194.448 49.3569,194.448" fill="none" stroke-width="0.5" stroke-linejoin="miter"/>
   <polyline stroke="#262626" stroke-linecap="butt" points="324.288,194.448 321.514,194.448" fill="none" stroke-width="0.5" stroke-linejoin="miter"/>
   <polyline stroke="#262626" stroke-linecap="butt" points="46.5828,150.851 49.3569,150.851" fill="none" stroke-width="0.5" stroke-linejoin="miter"/>
   <polyline stroke="#262626" stroke-linecap="butt" points="324.288,150.851 321.514,150.851" fill="none" stroke-width="0.5" stroke-linejoin="miter"/>
   <polyline stroke="#262626" stroke-linecap="butt" points="46.5828,107.254 49.3569,107.254" fill="none" stroke-width="0.5" stroke-linejoin="miter"/>
   <polyline stroke="#262626" stroke-linecap="butt" points="324.288,107.254 321.514,107.254" fill="none" stroke-width="0.5" stroke-linejoin="miter"/>
   <polyline stroke="#262626" stroke-linecap="butt" points="46.5828,63.6571 49.3569,63.6571" fill="none" stroke-width="0.5" stroke-linejoin="miter"/>
   <polyline stroke="#262626" stroke-linecap="butt" points="324.288,63.6571 321.514,63.6571" fill="none" stroke-width="0.5" stroke-linejoin="miter"/>
   <polyline stroke="#262626" stroke-linecap="butt" points="46.5828,20.06 49.3569,20.06" fill="none" stroke-width="0.5" stroke-linejoin="miter"/>
   <polyline stroke="#262626" stroke-linecap="butt" points="324.288,20.06 321.514,20.06" fill="none" stroke-width="0.5" stroke-linejoin="miter"/>
   <text font-weight="normal" transform="translate(5.5881,242.046) rotate(-0,36,-4)" xml:space="preserve" font-style="normal" font-family="FreeSans" font-size="10">
    <tspan y="-0" fill="rgb(38,38,38)" x="0 6 12 18 24 30 ">210000</tspan>
   </text>
   <text font-weight="normal" transform="translate(5.5881,198.449) rotate(-0,36,-4)" xml:space="preserve" font-style="normal" font-family="FreeSans" font-size="10">
    <tspan y="-0" fill="rgb(38,38,38)" x="0 6 12 18 24 30 ">215000</tspan>
   </text>
   <text font-weight="normal" transform="translate(5.5881,154.851) rotate(-0,36,-4)" xml:space="preserve" font-style="normal" font-family="FreeSans" font-size="10">
    <tspan y="-0" fill="rgb(38,38,38)" x="0 6 12 18 24 30 ">220000</tspan>
   </text>
   <text font-weight="normal" transform="translate(5.5881,111.254) rotate(-0,36,-4)" xml:space="preserve" font-style="normal" font-family="FreeSans" font-size="10">
    <tspan y="-0" fill="rgb(38,38,38)" x="0 6 12 18 24 30 ">225000</tspan>
   </text>
   <text font-weight="normal" transform="translate(5.5881,67.6572) rotate(-0,36,-4)" xml:space="preserve" font-style="normal" font-family="FreeSans" font-size="10">
    <tspan y="-0" fill="rgb(38,38,38)" x="0 6 12 18 24 30 ">230000</tspan>
   </text>
   <text font-weight="normal" transform="translate(5.5881,24.06) rotate(-0,36,-4)" xml:space="preserve" font-style="normal" font-family="FreeSans" font-size="10">
    <tspan y="-0" fill="rgb(38,38,38)" x="0 6 12 18 24 30 ">235000</tspan>
   </text>
   <polyline stroke="#262626" stroke-linecap="square" points="46.5828,238.046 324.288,238.046" stroke-dasharray="16,0" fill="none" stroke-width="0.5" stroke-linejoin="miter"/>
   <polyline stroke="#262626" stroke-linecap="square" points="46.5828,20.06 324.288,20.06" stroke-dasharray="16,0" fill="none" stroke-width="0.5" stroke-linejoin="miter"/>
   <polyline stroke="#262626" stroke-linecap="square" points="46.5828,238.046 46.5828,20.06" stroke-dasharray="16,0" fill="none" stroke-width="0.5" stroke-linejoin="miter"/>
   <polyline stroke="#262626" stroke-linecap="square" points="324.288,238.046 324.288,20.06" stroke-dasharray="16,0" fill="none" stroke-width="0.5" stroke-linejoin="miter"/>
   <polyline stroke="#0000ff" stroke-linecap="butt" points="46.5828,169.724 116.009,215.923 185.435,28.216 254.862,182.215 324.288,228.121" fill="none" stroke-width="0.5" stroke-linejoin="round"/>
   <polyline stroke="#ff0000" stroke-linecap="butt" points="46.5828,169.724 116.009,215.923 185.435,215.923 254.862,215.923 324.288,228.121" fill="none" stroke-width="0.5" stroke-linejoin="round"/>
  </g>
 </g>
</svg>
