<?xml version='1.0' encoding='UTF-8' standalone='no'?>
<svg xmlns="http://www.w3.org/2000/svg" height="267pt" xmlns:xlink="http://www.w3.org/1999/xlink" width="358pt" viewBox="0 0 358 267">
 <title>gl2ps_renderer figure</title>
 <desc>
Creator: GL2PS 1.4.2, (C) 1999-2020 C. Geuzaine
For: Octave
CreationDate: Sun Jun 27 12:06:22 2021
</desc>
 <defs/>
 <polygon points="0,0 358,0 358,267 0,267" fill="#ffffff"/>
 <g>
  <polygon points="0,267 358,267 358,0 0,0" fill="#ffffff" shape-rendering="crispEdges"/>
  <clipPath id="cp00358267">
   <polygon points="0,267 358,267 358,0 0,0"/>
  </clipPath>
  <g clip-path="url(#cp00358267)">
   <polygon points="46.5828,238.046 324.288,238.046 324.288,20.06 46.5828,20.06" fill="#ffffff" shape-rendering="crispEdges"/>
   <polyline stroke="#262626" points="46.5828,238.046 46.5828,235.269" stroke-linecap="butt" fill="none" stroke-width="0.5" stroke-linejoin="miter"/>
   <polyline stroke="#262626" points="46.5828,20.06 46.5828,22.8369" stroke-linecap="butt" fill="none" stroke-width="0.5" stroke-linejoin="miter"/>
   <polyline stroke="#262626" points="102.124,238.046 102.124,235.269" stroke-linecap="butt" fill="none" stroke-width="0.5" stroke-linejoin="miter"/>
   <polyline stroke="#262626" points="102.124,20.06 102.124,22.8369" stroke-linecap="butt" fill="none" stroke-width="0.5" stroke-linejoin="miter"/>
   <polyline stroke="#262626" points="157.665,238.046 157.665,235.269" stroke-linecap="butt" fill="none" stroke-width="0.5" stroke-linejoin="miter"/>
   <polyline stroke="#262626" points="157.665,20.06 157.665,22.8369" stroke-linecap="butt" fill="none" stroke-width="0.5" stroke-linejoin="miter"/>
   <polyline stroke="#262626" points="213.206,238.046 213.206,235.269" stroke-linecap="butt" fill="none" stroke-width="0.5" stroke-linejoin="miter"/>
   <polyline stroke="#262626" points="213.206,20.06 213.206,22.8369" stroke-linecap="butt" fill="none" stroke-width="0.5" stroke-linejoin="miter"/>
   <polyline stroke="#262626" points="268.747,238.046 268.747,235.269" stroke-linecap="butt" fill="none" stroke-width="0.5" stroke-linejoin="miter"/>
   <polyline stroke="#262626" points="268.747,20.06 268.747,22.8369" stroke-linecap="butt" fill="none" stroke-width="0.5" stroke-linejoin="miter"/>
   <polyline stroke="#262626" points="324.288,238.046 324.288,235.269" stroke-linecap="butt" fill="none" stroke-width="0.5" stroke-linejoin="miter"/>
   <polyline stroke="#262626" points="324.288,20.06 324.288,22.8369" stroke-linecap="butt" fill="none" stroke-width="0.5" stroke-linejoin="miter"/>
   <text font-style="normal" transform="translate(43.5828,253.545) rotate(-0,3,-8)" font-family="FreeSans" font-size="10" xml:space="preserve" font-weight="normal">
    <tspan y="-0" fill="rgb(38,38,38)" x="0 ">0</tspan>
   </text>
   <text font-style="normal" transform="translate(99.1238,253.545) rotate(-0,3,-8)" font-family="FreeSans" font-size="10" xml:space="preserve" font-weight="normal">
    <tspan y="-0" fill="rgb(38,38,38)" x="0 ">5</tspan>
   </text>
   <text font-style="normal" transform="translate(151.665,253.545) rotate(-0,6,-8)" font-family="FreeSans" font-size="10" xml:space="preserve" font-weight="normal">
    <tspan y="-0" fill="rgb(38,38,38)" x="0 6 ">10</tspan>
   </text>
   <text font-style="normal" transform="translate(207.206,253.545) rotate(-0,6,-8)" font-family="FreeSans" font-size="10" xml:space="preserve" font-weight="normal">
    <tspan y="-0" fill="rgb(38,38,38)" x="0 6 ">15</tspan>
   </text>
   <text font-style="normal" transform="translate(262.747,253.545) rotate(-0,6,-8)" font-family="FreeSans" font-size="10" xml:space="preserve" font-weight="normal">
    <tspan y="-0" fill="rgb(38,38,38)" x="0 6 ">20</tspan>
   </text>
   <text font-style="normal" transform="translate(318.288,253.545) rotate(-0,6,-8)" font-family="FreeSans" font-size="10" xml:space="preserve" font-weight="normal">
    <tspan y="-0" fill="rgb(38,38,38)" x="0 6 ">25</tspan>
   </text>
   <polyline stroke="#262626" points="46.5828,238.046 49.3569,238.046" stroke-linecap="butt" fill="none" stroke-width="0.5" stroke-linejoin="miter"/>
   <polyline stroke="#262626" points="324.288,238.046 321.514,238.046" stroke-linecap="butt" fill="none" stroke-width="0.5" stroke-linejoin="miter"/>
   <polyline stroke="#262626" points="46.5828,194.449 49.3569,194.449" stroke-linecap="butt" fill="none" stroke-width="0.5" stroke-linejoin="miter"/>
   <polyline stroke="#262626" points="324.288,194.449 321.514,194.449" stroke-linecap="butt" fill="none" stroke-width="0.5" stroke-linejoin="miter"/>
   <polyline stroke="#262626" points="46.5828,150.851 49.3569,150.851" stroke-linecap="butt" fill="none" stroke-width="0.5" stroke-linejoin="miter"/>
   <polyline stroke="#262626" points="324.288,150.851 321.514,150.851" stroke-linecap="butt" fill="none" stroke-width="0.5" stroke-linejoin="miter"/>
   <polyline stroke="#262626" points="46.5828,107.254 49.3569,107.254" stroke-linecap="butt" fill="none" stroke-width="0.5" stroke-linejoin="miter"/>
   <polyline stroke="#262626" points="324.288,107.254 321.514,107.254" stroke-linecap="butt" fill="none" stroke-width="0.5" stroke-linejoin="miter"/>
   <polyline stroke="#262626" points="46.5828,63.6572 49.3569,63.6572" stroke-linecap="butt" fill="none" stroke-width="0.5" stroke-linejoin="miter"/>
   <polyline stroke="#262626" points="324.288,63.6572 321.514,63.6572" stroke-linecap="butt" fill="none" stroke-width="0.5" stroke-linejoin="miter"/>
   <polyline stroke="#262626" points="46.5828,20.06 49.3569,20.06" stroke-linecap="butt" fill="none" stroke-width="0.5" stroke-linejoin="miter"/>
   <polyline stroke="#262626" points="324.288,20.06 321.514,20.06" stroke-linecap="butt" fill="none" stroke-width="0.5" stroke-linejoin="miter"/>
   <text font-style="normal" transform="translate(5.5881,242.046) rotate(-0,36,-4)" font-family="FreeSans" font-size="10" xml:space="preserve" font-weight="normal">
    <tspan y="-0" fill="rgb(38,38,38)" x="0 6 12 18 24 30 ">140000</tspan>
   </text>
   <text font-style="normal" transform="translate(5.5881,198.449) rotate(-0,36,-4)" font-family="FreeSans" font-size="10" xml:space="preserve" font-weight="normal">
    <tspan y="-0" fill="rgb(38,38,38)" x="0 6 12 18 24 30 ">160000</tspan>
   </text>
   <text font-style="normal" transform="translate(5.5881,154.851) rotate(-0,36,-4)" font-family="FreeSans" font-size="10" xml:space="preserve" font-weight="normal">
    <tspan y="-0" fill="rgb(38,38,38)" x="0 6 12 18 24 30 ">180000</tspan>
   </text>
   <text font-style="normal" transform="translate(5.5881,111.254) rotate(-0,36,-4)" font-family="FreeSans" font-size="10" xml:space="preserve" font-weight="normal">
    <tspan y="-0" fill="rgb(38,38,38)" x="0 6 12 18 24 30 ">200000</tspan>
   </text>
   <text font-style="normal" transform="translate(5.5881,67.6572) rotate(-0,36,-4)" font-family="FreeSans" font-size="10" xml:space="preserve" font-weight="normal">
    <tspan y="-0" fill="rgb(38,38,38)" x="0 6 12 18 24 30 ">220000</tspan>
   </text>
   <text font-style="normal" transform="translate(5.5881,24.06) rotate(-0,36,-4)" font-family="FreeSans" font-size="10" xml:space="preserve" font-weight="normal">
    <tspan y="-0" fill="rgb(38,38,38)" x="0 6 12 18 24 30 ">240000</tspan>
   </text>
   <polyline stroke="#262626" points="46.5828,238.046 324.288,238.046" stroke-linecap="square" fill="none" stroke-width="0.5" stroke-dasharray="16,0" stroke-linejoin="miter"/>
   <polyline stroke="#262626" points="46.5828,20.06 324.288,20.06" stroke-linecap="square" fill="none" stroke-width="0.5" stroke-dasharray="16,0" stroke-linejoin="miter"/>
   <polyline stroke="#262626" points="46.5828,238.046 46.5828,20.06" stroke-linecap="square" fill="none" stroke-width="0.5" stroke-dasharray="16,0" stroke-linejoin="miter"/>
   <polyline stroke="#262626" points="324.288,238.046 324.288,20.06" stroke-linecap="square" fill="none" stroke-width="0.5" stroke-dasharray="16,0" stroke-linejoin="miter"/>
   <polyline stroke="#0000ff" points="57.691,99.1149 68.7992,73.7399 79.9074,36.0924 91.0156,101.059 102.124,101.902 113.232,55.5667 124.34,62.3363 135.448,60.793 146.557,115.156 157.665,156.082 168.773,73.8713 179.881,92.0107 190.989,199.631 202.098,199.631 213.206,148 224.314,211.716 235.422,211.716 246.53,211.716 257.639,211.716 268.747,211.716 279.855,211.716 290.963,211.716 302.071,211.716 313.18,211.716 324.288,211.716" stroke-linecap="butt" fill="none" stroke-width="0.5" stroke-linejoin="round"/>
   <polyline stroke="#ff0000" points="57.691,99.1149 68.7992,99.1149 79.9074,99.1149 91.0156,101.059 102.124,101.902 113.232,101.902 124.34,101.902 135.448,101.902 146.557,115.156 157.665,156.082 168.773,156.082 179.881,156.082 190.989,199.631 202.098,199.631 213.206,199.631 224.314,211.716 235.422,211.716 246.53,211.716 257.639,211.716 268.747,211.716 279.855,211.716 290.963,211.716 302.071,211.716 313.18,211.716 324.288,211.716" stroke-linecap="butt" fill="none" stroke-width="0.5" stroke-linejoin="round"/>
  </g>
 </g>
</svg>
