<?xml version='1.0' encoding='UTF-8' standalone='no'?>
<svg viewBox="0 0 358 267" xmlns="http://www.w3.org/2000/svg" height="267pt" xmlns:xlink="http://www.w3.org/1999/xlink" width="358pt">
 <title>gl2ps_renderer figure</title>
 <desc>
Creator: GL2PS 1.4.2, (C) 1999-2020 C. Geuzaine
For: Octave
CreationDate: Sun Jun 27 12:07:25 2021
</desc>
 <defs/>
 <polygon fill="#ffffff" points="0,0 358,0 358,267 0,267"/>
 <g>
  <polygon fill="#ffffff" points="0,267 358,267 358,0 0,0" shape-rendering="crispEdges"/>
  <clipPath id="cp00358267">
   <polygon points="0,267 358,267 358,0 0,0"/>
  </clipPath>
  <g clip-path="url(#cp00358267)">
   <polygon fill="#ffffff" points="46.5828,238.046 324.288,238.046 324.288,20.06 46.5828,20.06" shape-rendering="crispEdges"/>
   <polyline fill="none" stroke-linecap="butt" stroke-width="0.5" stroke="#262626" points="46.5828,238.046 46.5828,235.269" stroke-linejoin="miter"/>
   <polyline fill="none" stroke-linecap="butt" stroke-width="0.5" stroke="#262626" points="46.5828,20.06 46.5828,22.8369" stroke-linejoin="miter"/>
   <polyline fill="none" stroke-linecap="butt" stroke-width="0.5" stroke="#262626" points="102.124,238.046 102.124,235.269" stroke-linejoin="miter"/>
   <polyline fill="none" stroke-linecap="butt" stroke-width="0.5" stroke="#262626" points="102.124,20.06 102.124,22.8369" stroke-linejoin="miter"/>
   <polyline fill="none" stroke-linecap="butt" stroke-width="0.5" stroke="#262626" points="157.665,238.046 157.665,235.269" stroke-linejoin="miter"/>
   <polyline fill="none" stroke-linecap="butt" stroke-width="0.5" stroke="#262626" points="157.665,20.06 157.665,22.8369" stroke-linejoin="miter"/>
   <polyline fill="none" stroke-linecap="butt" stroke-width="0.5" stroke="#262626" points="213.206,238.046 213.206,235.269" stroke-linejoin="miter"/>
   <polyline fill="none" stroke-linecap="butt" stroke-width="0.5" stroke="#262626" points="213.206,20.06 213.206,22.8369" stroke-linejoin="miter"/>
   <polyline fill="none" stroke-linecap="butt" stroke-width="0.5" stroke="#262626" points="268.747,238.046 268.747,235.269" stroke-linejoin="miter"/>
   <polyline fill="none" stroke-linecap="butt" stroke-width="0.5" stroke="#262626" points="268.747,20.06 268.747,22.8369" stroke-linejoin="miter"/>
   <polyline fill="none" stroke-linecap="butt" stroke-width="0.5" stroke="#262626" points="324.288,238.046 324.288,235.269" stroke-linejoin="miter"/>
   <polyline fill="none" stroke-linecap="butt" stroke-width="0.5" stroke="#262626" points="324.288,20.06 324.288,22.8369" stroke-linejoin="miter"/>
   <text transform="translate(43.5828,253.545) rotate(-0,3,-8)" font-size="10" font-weight="normal" xml:space="preserve" font-style="normal" font-family="FreeSans">
    <tspan y="-0" fill="rgb(38,38,38)" x="0 ">0</tspan>
   </text>
   <text transform="translate(96.1238,253.545) rotate(-0,6,-8)" font-size="10" font-weight="normal" xml:space="preserve" font-style="normal" font-family="FreeSans">
    <tspan y="-0" fill="rgb(38,38,38)" x="0 6 ">10</tspan>
   </text>
   <text transform="translate(151.665,253.545) rotate(-0,6,-8)" font-size="10" font-weight="normal" xml:space="preserve" font-style="normal" font-family="FreeSans">
    <tspan y="-0" fill="rgb(38,38,38)" x="0 6 ">20</tspan>
   </text>
   <text transform="translate(207.206,253.545) rotate(-0,6,-8)" font-size="10" font-weight="normal" xml:space="preserve" font-style="normal" font-family="FreeSans">
    <tspan y="-0" fill="rgb(38,38,38)" x="0 6 ">30</tspan>
   </text>
   <text transform="translate(262.747,253.545) rotate(-0,6,-8)" font-size="10" font-weight="normal" xml:space="preserve" font-style="normal" font-family="FreeSans">
    <tspan y="-0" fill="rgb(38,38,38)" x="0 6 ">40</tspan>
   </text>
   <text transform="translate(318.288,253.545) rotate(-0,6,-8)" font-size="10" font-weight="normal" xml:space="preserve" font-style="normal" font-family="FreeSans">
    <tspan y="-0" fill="rgb(38,38,38)" x="0 6 ">50</tspan>
   </text>
   <polyline fill="none" stroke-linecap="butt" stroke-width="0.5" stroke="#262626" points="46.5828,238.046 49.3569,238.046" stroke-linejoin="miter"/>
   <polyline fill="none" stroke-linecap="butt" stroke-width="0.5" stroke="#262626" points="324.288,238.046 321.514,238.046" stroke-linejoin="miter"/>
   <polyline fill="none" stroke-linecap="butt" stroke-width="0.5" stroke="#262626" points="46.5828,194.449 49.3569,194.449" stroke-linejoin="miter"/>
   <polyline fill="none" stroke-linecap="butt" stroke-width="0.5" stroke="#262626" points="324.288,194.449 321.514,194.449" stroke-linejoin="miter"/>
   <polyline fill="none" stroke-linecap="butt" stroke-width="0.5" stroke="#262626" points="46.5828,150.851 49.3569,150.851" stroke-linejoin="miter"/>
   <polyline fill="none" stroke-linecap="butt" stroke-width="0.5" stroke="#262626" points="324.288,150.851 321.514,150.851" stroke-linejoin="miter"/>
   <polyline fill="none" stroke-linecap="butt" stroke-width="0.5" stroke="#262626" points="46.5828,107.254 49.3569,107.254" stroke-linejoin="miter"/>
   <polyline fill="none" stroke-linecap="butt" stroke-width="0.5" stroke="#262626" points="324.288,107.254 321.514,107.254" stroke-linejoin="miter"/>
   <polyline fill="none" stroke-linecap="butt" stroke-width="0.5" stroke="#262626" points="46.5828,63.6572 49.3569,63.6572" stroke-linejoin="miter"/>
   <polyline fill="none" stroke-linecap="butt" stroke-width="0.5" stroke="#262626" points="324.288,63.6572 321.514,63.6572" stroke-linejoin="miter"/>
   <polyline fill="none" stroke-linecap="butt" stroke-width="0.5" stroke="#262626" points="46.5828,20.06 49.3569,20.06" stroke-linejoin="miter"/>
   <polyline fill="none" stroke-linecap="butt" stroke-width="0.5" stroke="#262626" points="324.288,20.06 321.514,20.06" stroke-linejoin="miter"/>
   <text transform="translate(5.5881,242.046) rotate(-0,36,-4)" font-size="10" font-weight="normal" xml:space="preserve" font-style="normal" font-family="FreeSans">
    <tspan y="-0" fill="rgb(38,38,38)" x="0 6 12 18 24 30 ">140000</tspan>
   </text>
   <text transform="translate(5.5881,198.449) rotate(-0,36,-4)" font-size="10" font-weight="normal" xml:space="preserve" font-style="normal" font-family="FreeSans">
    <tspan y="-0" fill="rgb(38,38,38)" x="0 6 12 18 24 30 ">160000</tspan>
   </text>
   <text transform="translate(5.5881,154.851) rotate(-0,36,-4)" font-size="10" font-weight="normal" xml:space="preserve" font-style="normal" font-family="FreeSans">
    <tspan y="-0" fill="rgb(38,38,38)" x="0 6 12 18 24 30 ">180000</tspan>
   </text>
   <text transform="translate(5.5881,111.254) rotate(-0,36,-4)" font-size="10" font-weight="normal" xml:space="preserve" font-style="normal" font-family="FreeSans">
    <tspan y="-0" fill="rgb(38,38,38)" x="0 6 12 18 24 30 ">200000</tspan>
   </text>
   <text transform="translate(5.5881,67.6572) rotate(-0,36,-4)" font-size="10" font-weight="normal" xml:space="preserve" font-style="normal" font-family="FreeSans">
    <tspan y="-0" fill="rgb(38,38,38)" x="0 6 12 18 24 30 ">220000</tspan>
   </text>
   <text transform="translate(5.5881,24.06) rotate(-0,36,-4)" font-size="10" font-weight="normal" xml:space="preserve" font-style="normal" font-family="FreeSans">
    <tspan y="-0" fill="rgb(38,38,38)" x="0 6 12 18 24 30 ">240000</tspan>
   </text>
   <polyline fill="none" stroke-linecap="square" stroke-width="0.5" stroke="#262626" stroke-dasharray="16,0" points="46.5828,238.046 324.288,238.046" stroke-linejoin="miter"/>
   <polyline fill="none" stroke-linecap="square" stroke-width="0.5" stroke="#262626" stroke-dasharray="16,0" points="46.5828,20.06 324.288,20.06" stroke-linejoin="miter"/>
   <polyline fill="none" stroke-linecap="square" stroke-width="0.5" stroke="#262626" stroke-dasharray="16,0" points="46.5828,238.046 46.5828,20.06" stroke-linejoin="miter"/>
   <polyline fill="none" stroke-linecap="square" stroke-width="0.5" stroke="#262626" stroke-dasharray="16,0" points="324.288,238.046 324.288,20.06" stroke-linejoin="miter"/>
   <polyline fill="none" stroke-linecap="butt" stroke-width="0.5" stroke="#0000ff" points="52.1369,134.809 57.691,114.64 63.2451,54.8444 68.7992,93.2394 74.3533,84.448 79.9074,199.631 85.4615,85.1679 91.0156,68.1137 96.5697,85.2932 102.124,85.4371 107.678,110.137 113.232,92.0502 118.786,104.116 124.34,87.5802 129.894,101.401 135.448,92.0302 141.003,95.7976 146.557,96.3416 152.111,104.116 157.665,101.401 163.219,104.116 168.773,101.401 174.327,101.401 179.881,104.116 185.435,104.116 190.989,104.116 196.544,104.116 202.098,104.116 207.652,104.116 213.206,104.116 218.76,104.116 224.314,104.116 229.868,104.116 235.422,104.116 240.976,104.116 246.53,104.116 252.085,104.116 257.639,104.116 263.193,104.116 268.747,104.116 274.301,104.116 279.855,104.116 285.409,104.116 290.963,104.116 296.517,104.116" stroke-linejoin="round"/>
   <polyline fill="none" stroke-linecap="butt" stroke-width="0.5" stroke="#ff0000" points="52.1369,134.809 57.691,134.809 63.2451,134.809 68.7992,134.809 74.3533,134.809 79.9074,199.631 85.4615,199.631 91.0156,199.631 96.5697,199.631 102.124,199.631 107.678,199.631 113.232,199.631 118.786,199.631 124.34,199.631 129.894,199.631 135.448,199.631 141.003,199.631 146.557,199.631 152.111,199.631 157.665,199.631 163.219,199.631 168.773,199.631 174.327,199.631 179.881,199.631 185.435,199.631 190.989,199.631 196.544,199.631 202.098,199.631 207.652,199.631 213.206,199.631 218.76,199.631 224.314,199.631 229.868,199.631 235.422,199.631 240.976,199.631 246.53,199.631 252.085,199.631 257.639,199.631 263.193,199.631 268.747,199.631 274.301,199.631 279.855,199.631 285.409,199.631 290.963,199.631 296.517,199.631" stroke-linejoin="round"/>
  </g>
 </g>
</svg>
